SplineFontDB: 3.0
FontName: Awoof-Mono-Regular
FullName: Awoof Mono
FamilyName: Awoof
Weight: Regular
Copyright: 
Version: 001.000
ItalicAngle: 0
UnderlinePosition: -153.6
UnderlineWidth: 61.44
Ascent: 819
Descent: 205
InvalidEm: 0
sfntRevision: 0x00010000
LayerCount: 2
Layer: 0 1 "Back" 1
Layer: 1 1 "Fore" 0
XUID: [1021 740 1079781356 11858757]
StyleMap: 0x0040
FSType: 0
OS2Version: 4
OS2_WeightWidthSlopeOnly: 0
OS2_UseTypoMetrics: 0
CreationTime: 1513646632
ModificationTime: 1513648846
PfmFamily: 17
TTFWeight: 400
TTFWidth: 5
LineGap: 92
VLineGap: 0
Panose: 2 0 5 3 0 0 0 0 0 0
OS2TypoAscent: 819
OS2TypoAOffset: 0
OS2TypoDescent: -205
OS2TypoDOffset: 0
OS2TypoLinegap: 92
OS2WinAscent: 737
OS2WinAOffset: 0
OS2WinDescent: 25
OS2WinDOffset: 0
HheadAscent: 737
HheadAOffset: 0
HheadDescent: -25
HheadDOffset: 0
OS2SubXSize: 666
OS2SubYSize: 717
OS2SubXOff: 0
OS2SubYOff: 143
OS2SupXSize: 666
OS2SupYSize: 717
OS2SupXOff: 0
OS2SupYOff: 492
OS2StrikeYSize: 50
OS2StrikeYPos: 264
OS2CapHeight: 666
OS2XHeight: 436
OS2Vendor: 'CLGR'
OS2CodePages: 00000001.00000000
OS2UnicodeRanges: 00000003.00000000.00000000.00000000
MarkAttachClasses: 1
DEI: 91125
TtTable: prep
PUSHW_1
 511
SCANCTRL
PUSHB_1
 4
SCANTYPE
EndTTInstrs
ShortTable: cvt  2
  33
  633
EndShort
ShortTable: maxp 16
  1
  0
  100
  84
  7
  0
  0
  2
  0
  1
  1
  0
  64
  0
  0
  0
EndShort
LangName: 1033 "" "" "" "" "" "Version 001.000" "" "" "" "Ellen Dash" "" "" "" "" "" "" "Awoof" "Regular"
GaspTable: 1 65535 15 1
Encoding: UnicodeBmp
UnicodeInterp: none
NameList: AGL For New Fonts
DisplaySize: -48
AntiAlias: 1
FitToEm: 0
WinInfo: 0 38 14
BeginPrivate: 0
EndPrivate
BeginChars: 65538 98

StartChar: .notdef
Encoding: 65536 -1 0
Width: 372
Flags: W
LayerCount: 2
Fore
SplineSet
34 0 m 1,0,-1
 34 682 l 1,1,-1
 305 682 l 1,2,-1
 305 0 l 1,3,-1
 34 0 l 1,0,-1
68 34 m 1,4,-1
 271 34 l 1,5,-1
 271 648 l 1,6,-1
 68 648 l 1,7,-1
 68 34 l 1,4,-1
EndSplineSet
EndChar

StartChar: exclam
Encoding: 33 33 3
Width: 563
Flags: W
LayerCount: 2
Fore
SplineSet
259 115 m 1,0,-1
 259 208 l 1,1,-1
 305 208 l 1,2,-1
 305 115 l 1,3,-1
 259 115 l 1,0,-1
259 301 m 1,4,-1
 259 674 l 1,5,-1
 305 674 l 1,6,-1
 305 301 l 1,7,-1
 259 301 l 1,4,-1
EndSplineSet
EndChar

StartChar: quotedbl
Encoding: 34 34 4
Width: 563
Flags: W
LayerCount: 2
Fore
SplineSet
317 441 m 1,0,-1
 317 581 l 1,1,-1
 363 581 l 1,2,-1
 363 441 l 1,3,-1
 317 441 l 1,0,-1
200 441 m 1,4,-1
 200 581 l 1,5,-1
 246 581 l 1,6,-1
 246 441 l 1,7,-1
 200 441 l 1,4,-1
EndSplineSet
EndChar

StartChar: numbersign
Encoding: 35 35 5
Width: 563
Flags: W
LayerCount: 2
Fore
SplineSet
328 301 m 1,0,-1
 328 487 l 1,1,-1
 234 487 l 1,2,-1
 234 301 l 1,3,-1
 328 301 l 1,0,-1
188 535 m 1,4,-1
 188 627 l 1,5,-1
 234 627 l 1,6,-1
 234 535 l 1,7,-1
 328 535 l 1,8,-1
 328 627 l 1,9,-1
 375 627 l 1,10,-1
 375 535 l 1,11,-1
 468 535 l 1,12,-1
 468 487 l 1,13,-1
 375 487 l 1,14,-1
 375 301 l 1,15,-1
 468 301 l 1,16,-1
 468 255 l 1,17,-1
 375 255 l 1,18,-1
 375 162 l 1,19,-1
 328 162 l 1,20,-1
 328 255 l 1,21,-1
 234 255 l 1,22,-1
 234 162 l 1,23,-1
 188 162 l 1,24,-1
 188 255 l 1,25,-1
 95 255 l 1,26,-1
 95 301 l 1,27,-1
 188 301 l 1,28,-1
 188 487 l 1,29,-1
 95 487 l 1,30,-1
 95 535 l 1,31,-1
 188 535 l 1,4,-1
EndSplineSet
EndChar

StartChar: dollar
Encoding: 36 36 6
Width: 563
Flags: W
LayerCount: 2
Fore
SplineSet
352 255 m 1,0,-1
 352 394 l 1,1,-1
 305 394 l 1,2,-1
 305 255 l 1,3,-1
 352 255 l 1,0,-1
259 441 m 1,4,-1
 259 535 l 1,5,-1
 211 535 l 1,6,-1
 211 441 l 1,7,-1
 259 441 l 1,4,-1
259 581 m 1,8,-1
 259 674 l 1,9,-1
 305 674 l 1,10,-1
 305 581 l 1,11,-1
 352 581 l 1,12,-1
 352 535 l 1,13,-1
 398 535 l 1,14,-1
 398 487 l 1,15,-1
 352 487 l 1,16,-1
 352 535 l 1,17,-1
 305 535 l 1,18,-1
 305 441 l 1,19,-1
 352 441 l 1,20,-1
 352 394 l 1,21,-1
 398 394 l 1,22,-1
 398 255 l 1,23,-1
 352 255 l 1,24,-1
 352 208 l 1,25,-1
 305 208 l 1,26,-1
 305 115 l 1,27,-1
 259 115 l 1,28,-1
 259 208 l 1,29,-1
 211 208 l 1,30,-1
 211 255 l 1,31,-1
 259 255 l 1,32,-1
 259 394 l 1,33,-1
 211 394 l 1,34,-1
 211 441 l 1,35,-1
 165 441 l 1,36,-1
 165 535 l 1,37,-1
 211 535 l 1,38,-1
 211 581 l 1,39,-1
 259 581 l 1,8,-1
211 255 m 1,40,-1
 165 255 l 1,41,-1
 165 301 l 1,42,-1
 211 301 l 1,43,-1
 211 255 l 1,40,-1
EndSplineSet
EndChar

StartChar: percent
Encoding: 37 37 7
Width: 563
Flags: W
LayerCount: 2
Fore
SplineSet
374 301 m 1,0,-1
 374 208 l 1,1,-1
 467 208 l 1,2,-1
 467 301 l 1,3,-1
 374 301 l 1,0,-1
374 301 m 1,4,-1
 374 348 l 1,5,-1
 467 348 l 1,6,-1
 467 301 l 1,7,-1
 515 301 l 1,8,-1
 515 208 l 1,9,-1
 467 208 l 1,10,-1
 467 162 l 1,11,-1
 374 162 l 1,12,-1
 374 208 l 1,13,-1
 328 208 l 1,14,-1
 328 301 l 1,15,-1
 374 301 l 1,4,-1
95 208 m 1,16,-1
 95 255 l 1,17,-1
 142 255 l 1,18,-1
 142 301 l 1,19,-1
 188 301 l 1,20,-1
 188 348 l 1,21,-1
 235 348 l 1,22,-1
 235 394 l 1,23,-1
 281 394 l 1,24,-1
 281 441 l 1,25,-1
 328 441 l 1,26,-1
 328 487 l 1,27,-1
 374 487 l 1,28,-1
 374 535 l 1,29,-1
 421 535 l 1,30,-1
 421 581 l 1,31,-1
 467 581 l 1,32,-1
 467 535 l 1,33,-1
 421 535 l 1,34,-1
 421 487 l 1,35,-1
 374 487 l 1,36,-1
 374 441 l 1,37,-1
 328 441 l 1,38,-1
 328 394 l 1,39,-1
 281 394 l 1,40,-1
 281 348 l 1,41,-1
 235 348 l 1,42,-1
 235 301 l 1,43,-1
 188 301 l 1,44,-1
 188 255 l 1,45,-1
 142 255 l 1,46,-1
 142 208 l 1,47,-1
 95 208 l 1,16,-1
95 208 m 1,48,-1
 95 162 l 1,49,-1
 49 162 l 1,50,-1
 49 208 l 1,51,-1
 95 208 l 1,48,-1
467 581 m 1,52,-1
 467 627 l 1,53,-1
 515 627 l 1,54,-1
 515 581 l 1,55,-1
 467 581 l 1,52,-1
95 581 m 1,56,-1
 95 487 l 1,57,-1
 188 487 l 1,58,-1
 188 581 l 1,59,-1
 95 581 l 1,56,-1
95 581 m 1,60,-1
 95 627 l 1,61,-1
 188 627 l 1,62,-1
 188 581 l 1,63,-1
 235 581 l 1,64,-1
 235 487 l 1,65,-1
 188 487 l 1,66,-1
 188 441 l 1,67,-1
 95 441 l 1,68,-1
 95 487 l 1,69,-1
 49 487 l 1,70,-1
 49 581 l 1,71,-1
 95 581 l 1,60,-1
EndSplineSet
EndChar

StartChar: ampersand
Encoding: 38 38 8
Width: 563
Flags: W
LayerCount: 2
Fore
SplineSet
265 75 m 1,0,-1
 265 168 l 1,1,-1
 311 168 l 1,2,-1
 311 75 l 1,3,-1
 265 75 l 1,0,-1
259 633 m 1,4,-1
 259 726 l 1,5,-1
 305 726 l 1,6,-1
 305 633 l 1,7,-1
 259 633 l 1,4,-1
352 261 m 1,8,-1
 352 214 l 1,9,-1
 218 214 l 1,10,-1
 218 261 l 1,11,-1
 172 261 l 1,12,-1
 172 400 l 1,13,-1
 192 400 l 2,14,15
 206 400 206 400 208.5 403.5 c 128,-1,16
 211 407 211 407 211 424 c 2,17,-1
 211 446 l 1,18,-1
 165 446 l 1,19,-1
 165 540 l 1,20,-1
 211 540 l 1,21,-1
 211 446 l 1,22,-1
 352 446 l 1,23,-1
 352 400 l 1,24,-1
 210 400 l 1,25,-1
 214 352 l 2,26,27
 218 299 218 299 218 283 c 2,28,-1
 218 261 l 1,29,-1
 352 261 l 1,8,-1
352 261 m 1,30,-1
 352 307 l 1,31,-1
 398 307 l 1,32,-1
 398 261 l 1,33,-1
 352 261 l 1,30,-1
352 540 m 1,34,-1
 211 540 l 1,35,-1
 211 587 l 1,36,-1
 352 587 l 1,37,-1
 352 540 l 1,34,-1
352 540 m 1,38,-1
 398 540 l 1,39,-1
 398 532 l 4,40,-1
 398 494 l 1,41,-1
 352 494 l 1,42,-1
 352 540 l 1,38,-1
EndSplineSet
EndChar

StartChar: quotesingle
Encoding: 39 39 9
Width: 563
Flags: W
LayerCount: 2
Fore
SplineSet
259 446 m 1,0,-1
 259 587 l 1,1,-1
 305 587 l 1,2,-1
 305 446 l 1,3,-1
 259 446 l 1,0,-1
EndSplineSet
EndChar

StartChar: parenleft
Encoding: 40 40 10
Width: 563
Flags: W
LayerCount: 2
Fore
SplineSet
328 86 m 1,0,-1
 282 86 l 1,1,-1
 282 133 l 1,2,-1
 234 133 l 1,3,-1
 234 179 l 1,4,-1
 188 179 l 1,5,-1
 188 505 l 1,6,-1
 234 505 l 1,7,-1
 234 552 l 1,8,-1
 282 552 l 1,9,-1
 282 598 l 1,10,-1
 328 598 l 1,11,-1
 328 645 l 1,12,-1
 375 645 l 1,13,-1
 375 598 l 1,14,-1
 328 598 l 1,15,-1
 328 552 l 1,16,-1
 282 552 l 1,17,-1
 282 505 l 1,18,-1
 234 505 l 1,19,-1
 234 179 l 1,20,-1
 282 179 l 1,21,-1
 282 133 l 1,22,-1
 328 133 l 1,23,-1
 328 86 l 1,0,-1
328 86 m 1,24,-1
 375 86 l 1,25,-1
 375 40 l 1,26,-1
 328 40 l 1,27,-1
 328 86 l 1,24,-1
EndSplineSet
EndChar

StartChar: parenright
Encoding: 41 41 11
Width: 563
Flags: W
LayerCount: 2
Fore
SplineSet
188 598 m 1,0,-1
 188 645 l 1,1,-1
 234 645 l 1,2,-1
 234 598 l 1,3,-1
 188 598 l 1,0,-1
234 86 m 1,4,-1
 234 133 l 1,5,-1
 282 133 l 1,6,-1
 282 179 l 1,7,-1
 328 179 l 1,8,-1
 328 505 l 1,9,-1
 282 505 l 1,10,-1
 282 552 l 1,11,-1
 234 552 l 1,12,-1
 234 598 l 1,13,-1
 282 598 l 1,14,-1
 282 552 l 1,15,-1
 328 552 l 1,16,-1
 328 505 l 1,17,-1
 375 505 l 1,18,-1
 375 179 l 1,19,-1
 328 179 l 1,20,-1
 328 133 l 1,21,-1
 282 133 l 1,22,-1
 282 86 l 1,23,-1
 234 86 l 1,4,-1
234 86 m 1,24,-1
 234 40 l 1,25,-1
 188 40 l 1,26,-1
 188 86 l 1,27,-1
 234 86 l 1,24,-1
EndSplineSet
EndChar

StartChar: asterisk
Encoding: 42 42 12
Width: 563
Flags: W
LayerCount: 2
Fore
SplineSet
259 552 m 1,0,-1
 259 645 l 1,1,-1
 305 645 l 1,2,-1
 305 552 l 1,3,-1
 398 552 l 1,4,-1
 398 505 l 1,5,-1
 305 505 l 1,6,-1
 305 459 l 1,7,-1
 259 459 l 1,8,-1
 259 505 l 1,9,-1
 165 505 l 1,10,-1
 165 552 l 1,11,-1
 259 552 l 1,0,-1
259 459 m 1,12,-1
 259 366 l 1,13,-1
 211 366 l 1,14,-1
 211 459 l 1,15,-1
 259 459 l 1,12,-1
305 459 m 1,16,-1
 352 459 l 1,17,-1
 352 366 l 1,18,-1
 305 366 l 1,19,-1
 305 459 l 1,16,-1
EndSplineSet
EndChar

StartChar: plus
Encoding: 43 43 13
Width: 563
Flags: W
LayerCount: 2
Fore
SplineSet
258 366 m 1,0,-1
 258 505 l 1,1,-1
 305 505 l 1,2,-1
 305 366 l 1,3,-1
 444 366 l 1,4,-1
 444 318 l 1,5,-1
 305 318 l 1,6,-1
 305 179 l 1,7,-1
 258 179 l 1,8,-1
 258 318 l 1,9,-1
 119 318 l 1,10,-1
 119 366 l 1,11,-1
 258 366 l 1,0,-1
EndSplineSet
EndChar

StartChar: comma
Encoding: 44 44 14
Width: 563
Flags: W
LayerCount: 2
Fore
SplineSet
258 115 m 1,0,-1
 258 208 l 1,1,-1
 351 208 l 1,2,-1
 351 115 l 1,3,-1
 305 115 l 1,4,-1
 305 69 l 1,5,-1
 212 69 l 1,6,-1
 212 115 l 1,7,-1
 258 115 l 1,0,-1
EndSplineSet
EndChar

StartChar: hyphen
Encoding: 45 45 15
Width: 563
Flags: W
LayerCount: 2
Fore
SplineSet
95 325 m 1,0,-1
 95 371 l 1,1,-1
 468 371 l 1,2,-1
 468 325 l 1,3,-1
 95 325 l 1,0,-1
EndSplineSet
EndChar

StartChar: period
Encoding: 46 46 16
Width: 563
Flags: W
LayerCount: 2
Fore
SplineSet
235 121 m 1,0,-1
 235 214 l 1,1,-1
 328 214 l 1,2,-1
 328 121 l 1,3,-1
 235 121 l 1,0,-1
EndSplineSet
EndChar

StartChar: slash
Encoding: 47 47 17
Width: 563
Flags: W
LayerCount: 2
Fore
SplineSet
188 211 m 1,0,-1
 188 304 l 1,1,-1
 234 304 l 1,2,-1
 234 398 l 1,3,-1
 282 398 l 1,4,-1
 282 492 l 1,5,-1
 329 492 l 1,6,-1
 329 585 l 1,7,-1
 376 585 l 1,8,-1
 376 492 l 1,9,-1
 329 492 l 1,10,-1
 329 398 l 1,11,-1
 282 398 l 1,12,-1
 282 304 l 1,13,-1
 234 304 l 1,14,-1
 234 211 l 1,15,-1
 188 211 l 1,0,-1
188 211 m 1,16,-1
 188 117 l 1,17,-1
 141 117 l 1,18,-1
 141 211 l 1,19,-1
 188 211 l 1,16,-1
376 585 m 1,20,-1
 376 679 l 1,21,-1
 422 679 l 1,22,-1
 422 585 l 1,23,-1
 376 585 l 1,20,-1
EndSplineSet
EndChar

StartChar: zero
Encoding: 48 48 18
Width: 563
Flags: W
LayerCount: 2
Fore
SplineSet
258 351 m 1,0,-1
 258 444 l 1,1,-1
 305 444 l 1,2,-1
 305 351 l 1,3,-1
 258 351 l 1,0,-1
258 351 m 1,4,-1
 258 257 l 1,5,-1
 211 257 l 1,6,-1
 211 351 l 1,7,-1
 258 351 l 1,4,-1
305 444 m 1,8,-1
 305 539 l 1,9,-1
 352 539 l 1,10,-1
 352 444 l 1,11,-1
 305 444 l 1,8,-1
211 257 m 1,12,-1
 211 164 l 1,13,-1
 352 164 l 1,14,-1
 352 211 l 1,15,-1
 398 211 l 1,16,-1
 398 539 l 1,17,-1
 352 539 l 1,18,-1
 352 632 l 1,19,-1
 211 632 l 1,20,-1
 211 585 l 1,21,-1
 165 585 l 1,22,-1
 165 257 l 1,23,-1
 211 257 l 1,12,-1
211 632 m 1,24,-1
 211 679 l 1,25,-1
 352 679 l 1,26,-1
 352 632 l 1,27,-1
 398 632 l 1,28,-1
 398 585 l 1,29,-1
 445 585 l 1,30,-1
 445 211 l 1,31,-1
 398 211 l 1,32,-1
 398 164 l 1,33,-1
 352 164 l 1,34,-1
 352 117 l 1,35,-1
 211 117 l 1,36,-1
 211 164 l 1,37,-1
 165 164 l 1,38,-1
 165 211 l 1,39,-1
 118 211 l 1,40,-1
 118 585 l 1,41,-1
 165 585 l 1,42,-1
 165 632 l 1,43,-1
 211 632 l 1,24,-1
EndSplineSet
EndChar

StartChar: one
Encoding: 49 49 19
Width: 563
Flags: W
LayerCount: 2
Fore
SplineSet
211 632 m 1,0,-1
 211 585 l 1,1,-1
 165 585 l 1,2,-1
 165 632 l 1,3,-1
 211 632 l 1,0,-1
211 632 m 1,4,-1
 211 679 l 1,5,-1
 305 679 l 1,6,-1
 305 164 l 1,7,-1
 445 164 l 1,8,-1
 445 117 l 1,9,-1
 118 117 l 1,10,-1
 118 164 l 1,11,-1
 258 164 l 1,12,-1
 258 632 l 1,13,-1
 211 632 l 1,4,-1
EndSplineSet
EndChar

StartChar: two
Encoding: 50 50 20
Width: 563
Flags: W
LayerCount: 2
Fore
SplineSet
165 585 m 1,0,-1
 165 632 l 1,1,-1
 211 632 l 1,2,-1
 211 585 l 1,3,-1
 165 585 l 1,0,-1
165 585 m 1,4,-1
 165 539 l 1,5,-1
 118 539 l 1,6,-1
 118 585 l 1,7,-1
 165 585 l 1,4,-1
165 211 m 1,8,-1
 165 257 l 1,9,-1
 211 257 l 1,10,-1
 211 304 l 1,11,-1
 258 304 l 1,12,-1
 258 351 l 1,13,-1
 305 351 l 1,14,-1
 305 398 l 1,15,-1
 352 398 l 1,16,-1
 352 444 l 1,17,-1
 398 444 l 1,18,-1
 398 585 l 1,19,-1
 352 585 l 1,20,-1
 352 632 l 1,21,-1
 211 632 l 1,22,-1
 211 679 l 1,23,-1
 352 679 l 1,24,-1
 352 632 l 1,25,-1
 398 632 l 1,26,-1
 398 585 l 1,27,-1
 445 585 l 1,28,-1
 445 444 l 1,29,-1
 398 444 l 1,30,-1
 398 398 l 1,31,-1
 352 398 l 1,32,-1
 352 351 l 1,33,-1
 305 351 l 1,34,-1
 305 304 l 1,35,-1
 258 304 l 1,36,-1
 258 257 l 1,37,-1
 211 257 l 1,38,-1
 211 211 l 1,39,-1
 165 211 l 1,8,-1
165 211 m 1,40,-1
 165 164 l 1,41,-1
 445 164 l 1,42,-1
 445 117 l 1,43,-1
 118 117 l 1,44,-1
 118 211 l 1,45,-1
 165 211 l 1,40,-1
EndSplineSet
EndChar

StartChar: three
Encoding: 51 51 21
Width: 563
Flags: W
LayerCount: 2
Fore
SplineSet
234 632 m 1,0,-1
 234 679 l 1,1,-1
 375 679 l 1,2,-1
 375 632 l 1,3,-1
 234 632 l 1,4,-1
 234 585 l 1,5,-1
 187 585 l 1,6,-1
 187 632 l 1,7,-1
 234 632 l 1,0,-1
187 585 m 1,8,-1
 187 539 l 1,9,-1
 141 539 l 1,10,-1
 141 585 l 1,11,-1
 187 585 l 1,8,-1
141 164 m 1,12,-1
 375 164 l 1,13,-1
 375 211 l 1,14,-1
 422 211 l 1,15,-1
 422 351 l 1,16,-1
 375 351 l 1,17,-1
 375 398 l 1,18,-1
 282 398 l 1,19,-1
 282 444 l 1,20,-1
 375 444 l 1,21,-1
 375 492 l 1,22,-1
 422 492 l 1,23,-1
 422 585 l 1,24,-1
 375 585 l 1,25,-1
 375 632 l 1,26,-1
 422 632 l 1,27,-1
 422 585 l 1,28,-1
 469 585 l 1,29,-1
 469 492 l 1,30,-1
 422 492 l 1,31,-1
 422 444 l 1,32,-1
 375 444 l 1,33,-1
 375 398 l 1,34,-1
 422 398 l 1,35,-1
 422 351 l 1,36,-1
 469 351 l 1,37,-1
 469 211 l 1,38,-1
 422 211 l 1,39,-1
 422 164 l 1,40,-1
 375 164 l 1,41,-1
 375 117 l 1,42,-1
 141 117 l 1,43,-1
 141 164 l 1,12,-1
141 164 m 1,44,-1
 94 164 l 1,45,-1
 94 211 l 1,46,-1
 141 211 l 1,47,-1
 141 164 l 1,44,-1
EndSplineSet
EndChar

StartChar: four
Encoding: 52 52 22
Width: 563
Flags: W
LayerCount: 2
Fore
SplineSet
352 678 m 1,0,1
 359 678 359 678 373.5 680 c 128,-1,2
 388 682 388 682 395 682 c 1,3,-1
 397 540 l 1,4,-1
 398 398 l 1,5,-1
 422 398 l 2,6,7
 439 398 439 398 442 395 c 128,-1,8
 445 392 445 392 445 375 c 2,9,-1
 445 351 l 1,10,-1
 398 351 l 1,11,-1
 398 117 l 1,12,-1
 352 117 l 1,13,-1
 352 351 l 1,14,-1
 118 351 l 1,15,-1
 118 679 l 1,16,-1
 165 679 l 1,17,-1
 165 398 l 1,18,-1
 352 398 l 1,19,-1
 352 678 l 1,0,1
EndSplineSet
EndChar

StartChar: five
Encoding: 53 53 23
Width: 563
Flags: W
LayerCount: 2
Fore
SplineSet
118 403 m 1,0,-1
 118 685 l 1,1,-1
 445 685 l 1,2,-1
 445 638 l 1,3,-1
 165 638 l 1,4,-1
 165 451 l 1,5,-1
 352 451 l 1,6,-1
 352 403 l 1,7,-1
 118 403 l 1,0,-1
165 170 m 1,8,-1
 352 170 l 1,9,-1
 352 216 l 1,10,-1
 398 216 l 1,11,-1
 398 357 l 1,12,-1
 352 357 l 1,13,-1
 352 403 l 1,14,-1
 398 403 l 1,15,-1
 398 357 l 1,16,-1
 445 357 l 1,17,-1
 445 216 l 1,18,-1
 398 216 l 1,19,-1
 398 170 l 1,20,-1
 352 170 l 1,21,-1
 352 123 l 1,22,-1
 165 123 l 1,23,-1
 165 170 l 1,8,-1
165 170 m 1,24,-1
 118 170 l 1,25,-1
 118 216 l 1,26,-1
 165 216 l 1,27,-1
 165 170 l 1,24,-1
EndSplineSet
EndChar

StartChar: six
Encoding: 54 54 24
Width: 563
Flags: W
LayerCount: 2
Fore
SplineSet
165 216 m 1,0,-1
 211 216 l 1,1,-1
 211 170 l 1,2,-1
 352 170 l 1,3,-1
 352 216 l 1,4,-1
 398 216 l 1,5,-1
 398 357 l 1,6,-1
 352 357 l 1,7,-1
 352 403 l 1,8,-1
 211 403 l 1,9,-1
 211 357 l 1,10,-1
 165 357 l 1,11,-1
 165 216 l 1,0,-1
165 216 m 1,12,-1
 118 216 l 1,13,-1
 118 544 l 1,14,-1
 165 544 l 1,15,-1
 165 638 l 1,16,-1
 211 638 l 1,17,-1
 211 685 l 1,18,-1
 398 685 l 1,19,-1
 398 638 l 1,20,-1
 211 638 l 1,21,-1
 211 544 l 1,22,-1
 165 544 l 1,23,-1
 165 403 l 1,24,-1
 211 403 l 1,25,-1
 211 451 l 1,26,-1
 352 451 l 1,27,-1
 352 403 l 1,28,-1
 398 403 l 1,29,-1
 398 357 l 1,30,-1
 445 357 l 1,31,-1
 445 216 l 1,32,-1
 398 216 l 1,33,-1
 398 170 l 1,34,-1
 352 170 l 1,35,-1
 352 123 l 1,36,-1
 211 123 l 1,37,-1
 211 170 l 1,38,-1
 165 170 l 1,39,-1
 165 216 l 1,12,-1
398 638 m 1,40,-1
 445 638 l 1,41,-1
 445 591 l 1,42,-1
 398 591 l 1,43,-1
 398 638 l 1,40,-1
EndSplineSet
EndChar

StartChar: seven
Encoding: 55 55 25
Width: 563
Flags: W
LayerCount: 2
Fore
SplineSet
118 638 m 1,0,-1
 118 685 l 1,1,-1
 445 685 l 1,2,-1
 445 544 l 1,3,-1
 398 544 l 1,4,-1
 398 638 l 1,5,-1
 118 638 l 1,0,-1
305 357 m 1,6,-1
 305 403 l 1,7,-1
 211 403 l 1,8,-1
 211 451 l 1,9,-1
 352 451 l 1,10,-1
 352 544 l 1,11,-1
 398 544 l 1,12,-1
 398 451 l 1,13,-1
 445 451 l 1,14,-1
 445 403 l 1,15,-1
 352 403 l 1,16,-1
 352 357 l 1,17,-1
 305 357 l 1,6,-1
305 357 m 1,18,-1
 305 263 l 1,19,-1
 258 263 l 1,20,-1
 258 123 l 1,21,-1
 211 123 l 1,22,-1
 211 263 l 1,23,-1
 258 263 l 1,24,-1
 258 357 l 1,25,-1
 305 357 l 1,18,-1
EndSplineSet
EndChar

StartChar: eight
Encoding: 56 56 26
Width: 563
Flags: W
LayerCount: 2
Fore
SplineSet
375 353 m 1,0,-1
 375 400 l 1,1,-1
 188 400 l 1,2,-1
 188 353 l 1,3,-1
 141 353 l 1,4,-1
 141 214 l 1,5,-1
 188 214 l 1,6,-1
 188 168 l 1,7,-1
 375 168 l 1,8,-1
 375 214 l 1,9,-1
 421 214 l 1,10,-1
 421 353 l 1,11,-1
 375 353 l 1,0,-1
375 587 m 1,12,-1
 375 633 l 1,13,-1
 188 633 l 1,14,-1
 188 587 l 1,15,-1
 141 587 l 1,16,-1
 141 494 l 1,17,-1
 188 494 l 1,18,-1
 188 446 l 1,19,-1
 375 446 l 1,20,-1
 375 494 l 1,21,-1
 421 494 l 1,22,-1
 421 587 l 1,23,-1
 375 587 l 1,12,-1
141 587 m 1,24,-1
 141 633 l 1,25,-1
 188 633 l 1,26,-1
 188 680 l 1,27,-1
 375 680 l 1,28,-1
 375 633 l 1,29,-1
 421 633 l 1,30,-1
 421 587 l 1,31,-1
 468 587 l 1,32,-1
 468 494 l 1,33,-1
 421 494 l 1,34,-1
 421 446 l 1,35,-1
 375 446 l 1,36,-1
 375 400 l 1,37,-1
 421 400 l 1,38,-1
 421 353 l 1,39,-1
 468 353 l 1,40,-1
 468 214 l 1,41,-1
 421 214 l 1,42,-1
 421 168 l 1,43,-1
 375 168 l 1,44,-1
 375 121 l 1,45,-1
 188 121 l 1,46,-1
 188 168 l 1,47,-1
 141 168 l 1,48,-1
 141 214 l 1,49,-1
 95 214 l 1,50,-1
 95 353 l 1,51,-1
 141 353 l 1,52,-1
 141 400 l 1,53,-1
 188 400 l 1,54,-1
 188 446 l 1,55,-1
 141 446 l 1,56,-1
 141 494 l 1,57,-1
 95 494 l 1,58,-1
 95 587 l 1,59,-1
 141 587 l 1,24,-1
EndSplineSet
EndChar

StartChar: nine
Encoding: 57 57 27
Width: 563
Flags: W
LayerCount: 2
Fore
SplineSet
351 587 m 1,0,-1
 351 633 l 1,1,-1
 212 633 l 1,2,-1
 212 587 l 1,3,-1
 165 587 l 1,4,-1
 165 494 l 1,5,-1
 212 494 l 1,6,-1
 212 446 l 1,7,-1
 351 446 l 1,8,-1
 351 494 l 1,9,-1
 398 494 l 1,10,-1
 398 587 l 1,11,-1
 351 587 l 1,0,-1
212 633 m 1,12,-1
 212 680 l 1,13,-1
 351 680 l 1,14,-1
 351 633 l 1,15,-1
 398 633 l 1,16,-1
 398 587 l 1,17,-1
 444 587 l 1,18,-1
 444 121 l 1,19,-1
 398 121 l 1,20,-1
 398 446 l 1,21,-1
 351 446 l 1,22,-1
 351 400 l 1,23,-1
 212 400 l 1,24,-1
 212 446 l 1,25,-1
 165 446 l 1,26,-1
 165 494 l 1,27,-1
 119 494 l 1,28,-1
 119 587 l 1,29,-1
 165 587 l 1,30,-1
 165 633 l 1,31,-1
 212 633 l 1,12,-1
EndSplineSet
EndChar

StartChar: colon
Encoding: 58 58 28
Width: 563
Flags: W
LayerCount: 2
Fore
SplineSet
235 121 m 1,0,-1
 235 214 l 1,1,-1
 328 214 l 1,2,-1
 328 121 l 1,3,-1
 235 121 l 1,0,-1
235 353 m 1,4,-1
 235 446 l 1,5,-1
 328 446 l 1,6,-1
 328 353 l 1,7,-1
 235 353 l 1,4,-1
EndSplineSet
EndChar

StartChar: semicolon
Encoding: 59 59 29
Width: 563
Flags: W
LayerCount: 2
Fore
SplineSet
258 121 m 1,0,-1
 258 214 l 1,1,-1
 351 214 l 1,2,-1
 351 121 l 1,3,-1
 305 121 l 1,4,-1
 305 75 l 1,5,-1
 212 75 l 1,6,-1
 212 121 l 1,7,-1
 258 121 l 1,0,-1
258 353 m 1,8,-1
 258 446 l 1,9,-1
 351 446 l 1,10,-1
 351 353 l 1,11,-1
 258 353 l 1,8,-1
EndSplineSet
EndChar

StartChar: less
Encoding: 60 60 30
Width: 563
Flags: W
LayerCount: 2
Fore
SplineSet
352 494 m 1,0,-1
 352 540 l 1,1,-1
 398 540 l 1,2,-1
 398 494 l 1,3,-1
 352 494 l 1,4,-1
 352 446 l 1,5,-1
 305 446 l 1,6,-1
 305 494 l 1,7,-1
 352 494 l 1,0,-1
352 168 m 1,8,-1
 305 168 l 1,9,-1
 305 214 l 1,10,-1
 259 214 l 1,11,-1
 259 261 l 1,12,-1
 211 261 l 1,13,-1
 211 307 l 1,14,-1
 165 307 l 1,15,-1
 165 353 l 1,16,-1
 211 353 l 1,17,-1
 211 400 l 1,18,-1
 259 400 l 1,19,-1
 259 446 l 1,20,-1
 305 446 l 1,21,-1
 305 400 l 1,22,-1
 259 400 l 1,23,-1
 259 353 l 1,24,-1
 211 353 l 1,25,-1
 211 307 l 1,26,-1
 259 307 l 1,27,-1
 259 261 l 1,28,-1
 305 261 l 1,29,-1
 305 214 l 1,30,-1
 352 214 l 1,31,-1
 352 168 l 1,8,-1
352 168 m 1,32,-1
 398 168 l 1,33,-1
 398 121 l 1,34,-1
 352 121 l 1,35,-1
 352 168 l 1,32,-1
EndSplineSet
EndChar

StartChar: equal
Encoding: 61 61 31
Width: 563
Flags: W
LayerCount: 2
Fore
SplineSet
119 214 m 1,0,-1
 119 261 l 1,1,-1
 444 261 l 1,2,-1
 444 214 l 1,3,-1
 119 214 l 1,0,-1
119 353 m 1,4,-1
 119 400 l 1,5,-1
 444 400 l 1,6,-1
 444 353 l 1,7,-1
 119 353 l 1,4,-1
EndSplineSet
EndChar

StartChar: greater
Encoding: 62 62 32
Width: 563
Flags: W
LayerCount: 2
Fore
SplineSet
165 500 m 1,0,-1
 165 546 l 1,1,-1
 211 546 l 1,2,-1
 211 500 l 1,3,-1
 165 500 l 1,0,-1
305 266 m 1,4,-1
 305 313 l 1,5,-1
 352 313 l 1,6,-1
 352 359 l 1,7,-1
 305 359 l 1,8,-1
 305 407 l 1,9,-1
 259 407 l 1,10,-1
 259 453 l 1,11,-1
 211 453 l 1,12,-1
 211 500 l 1,13,-1
 259 500 l 1,14,-1
 259 453 l 1,15,-1
 305 453 l 1,16,-1
 305 407 l 1,17,-1
 352 407 l 1,18,-1
 352 359 l 1,19,-1
 398 359 l 1,20,-1
 398 313 l 1,21,-1
 352 313 l 1,22,-1
 352 266 l 1,23,-1
 305 266 l 1,4,-1
305 266 m 1,24,-1
 305 220 l 1,25,-1
 259 220 l 1,26,-1
 259 173 l 1,27,-1
 211 173 l 1,28,-1
 211 127 l 1,29,-1
 165 127 l 1,30,-1
 165 173 l 1,31,-1
 211 173 l 1,32,-1
 211 220 l 1,33,-1
 259 220 l 1,34,-1
 259 266 l 1,35,-1
 305 266 l 1,24,-1
EndSplineSet
EndChar

StartChar: question
Encoding: 63 63 33
Width: 563
Flags: W
LayerCount: 2
Fore
SplineSet
258 127 m 1,0,-1
 258 220 l 1,1,-1
 305 220 l 1,2,-1
 305 127 l 1,3,-1
 258 127 l 1,0,-1
398 500 m 1,4,-1
 398 592 l 1,5,-1
 351 592 l 1,6,-1
 351 639 l 1,7,-1
 212 639 l 1,8,-1
 212 592 l 1,9,-1
 165 592 l 1,10,-1
 165 546 l 1,11,-1
 119 546 l 1,12,-1
 119 592 l 1,13,-1
 165 592 l 1,14,-1
 165 639 l 1,15,-1
 212 639 l 1,16,-1
 212 685 l 1,17,-1
 351 685 l 1,18,-1
 351 639 l 1,19,-1
 398 639 l 1,20,-1
 398 592 l 1,21,-1
 444 592 l 1,22,-1
 444 500 l 1,23,-1
 398 500 l 1,4,-1
398 500 m 1,24,-1
 398 453 l 1,25,-1
 351 453 l 1,26,-1
 351 407 l 1,27,-1
 305 407 l 1,28,-1
 305 313 l 1,29,-1
 258 313 l 1,30,-1
 258 453 l 1,31,-1
 351 453 l 1,32,-1
 351 500 l 1,33,-1
 398 500 l 1,24,-1
EndSplineSet
EndChar

StartChar: at
Encoding: 64 64 34
Width: 563
Flags: W
LayerCount: 2
Fore
SplineSet
188 546 m 1,0,-1
 188 592 l 1,1,-1
 374 592 l 1,2,-1
 374 546 l 1,3,-1
 188 546 l 1,4,-1
 188 500 l 1,5,-1
 142 500 l 1,6,-1
 142 546 l 1,7,-1
 188 546 l 1,0,-1
95 266 m 1,8,-1
 49 266 l 1,9,-1
 49 453 l 1,10,-1
 95 453 l 1,11,-1
 95 500 l 1,12,-1
 142 500 l 1,13,-1
 142 453 l 1,14,-1
 95 453 l 1,15,-1
 95 266 l 1,8,-1
95 266 m 1,16,-1
 142 266 l 1,17,-1
 142 220 l 1,18,-1
 328 220 l 1,19,-1
 328 173 l 1,20,-1
 142 173 l 1,21,-1
 142 220 l 1,22,-1
 95 220 l 1,23,-1
 95 266 l 1,16,-1
328 453 m 1,24,-1
 235 453 l 1,25,-1
 235 407 l 1,26,-1
 188 407 l 1,27,-1
 188 313 l 1,28,-1
 281 313 l 1,29,-1
 281 359 l 1,30,-1
 328 359 l 1,31,-1
 328 453 l 1,24,-1
328 453 m 1,32,-1
 374 453 l 1,33,-1
 374 266 l 1,34,-1
 467 266 l 1,35,-1
 467 453 l 1,36,-1
 421 453 l 1,37,-1
 421 500 l 1,38,-1
 374 500 l 1,39,-1
 374 546 l 1,40,-1
 421 546 l 1,41,-1
 421 500 l 1,42,-1
 467 500 l 1,43,-1
 467 453 l 1,44,-1
 515 453 l 1,45,-1
 515 266 l 1,46,-1
 467 266 l 1,47,-1
 467 220 l 1,48,-1
 374 220 l 1,49,-1
 374 266 l 1,50,-1
 328 266 l 1,51,-1
 328 313 l 1,52,-1
 281 313 l 1,53,-1
 281 266 l 1,54,-1
 188 266 l 1,55,-1
 188 313 l 1,56,-1
 142 313 l 1,57,-1
 142 407 l 1,58,-1
 188 407 l 1,59,-1
 188 453 l 1,60,-1
 235 453 l 1,61,-1
 235 500 l 1,62,-1
 328 500 l 1,63,-1
 328 453 l 1,32,-1
EndSplineSet
EndChar

StartChar: A
Encoding: 65 65 35
Width: 563
Flags: W
LayerCount: 2
Fore
SplineSet
351 587 m 1,0,-1
 351 633 l 1,1,-1
 212 633 l 1,2,-1
 212 587 l 1,3,-1
 165 587 l 1,4,-1
 165 400 l 1,5,-1
 398 400 l 1,6,-1
 398 587 l 1,7,-1
 351 587 l 1,0,-1
212 633 m 1,8,-1
 212 680 l 1,9,-1
 351 680 l 1,10,-1
 351 633 l 1,11,-1
 398 633 l 1,12,-1
 398 587 l 1,13,-1
 444 587 l 1,14,-1
 444 121 l 1,15,-1
 398 121 l 1,16,-1
 398 353 l 1,17,-1
 165 353 l 1,18,-1
 165 121 l 1,19,-1
 119 121 l 1,20,-1
 119 587 l 1,21,-1
 165 587 l 1,22,-1
 165 633 l 1,23,-1
 212 633 l 1,8,-1
EndSplineSet
EndChar

StartChar: B
Encoding: 66 66 36
Width: 563
Flags: W
LayerCount: 2
Fore
SplineSet
351 353 m 1,0,-1
 351 400 l 1,1,-1
 165 400 l 1,2,-1
 165 168 l 1,3,-1
 351 168 l 1,4,-1
 351 214 l 1,5,-1
 398 214 l 1,6,-1
 398 353 l 1,7,-1
 351 353 l 1,0,-1
351 587 m 1,8,-1
 351 633 l 1,9,-1
 165 633 l 1,10,-1
 165 446 l 1,11,-1
 351 446 l 1,12,-1
 351 494 l 1,13,-1
 398 494 l 1,14,-1
 398 587 l 1,15,-1
 351 587 l 1,8,-1
119 121 m 1,16,-1
 119 680 l 1,17,-1
 351 680 l 1,18,-1
 351 633 l 1,19,-1
 398 633 l 1,20,-1
 398 587 l 1,21,-1
 444 587 l 1,22,-1
 444 494 l 1,23,-1
 398 494 l 1,24,-1
 398 446 l 1,25,-1
 351 446 l 1,26,-1
 351 400 l 1,27,-1
 398 400 l 1,28,-1
 398 353 l 1,29,-1
 444 353 l 1,30,-1
 444 214 l 1,31,-1
 398 214 l 1,32,-1
 398 168 l 1,33,-1
 351 168 l 1,34,-1
 351 121 l 1,35,-1
 119 121 l 1,16,-1
EndSplineSet
EndChar

StartChar: C
Encoding: 67 67 37
Width: 563
Flags: W
LayerCount: 2
Fore
SplineSet
398 214 m 1,0,-1
 398 168 l 1,1,-1
 351 168 l 1,2,-1
 351 121 l 1,3,-1
 212 121 l 1,4,-1
 212 168 l 1,5,-1
 165 168 l 1,6,-1
 165 214 l 1,7,-1
 119 214 l 1,8,-1
 119 587 l 1,9,-1
 165 587 l 1,10,-1
 165 633 l 1,11,-1
 212 633 l 1,12,-1
 212 680 l 1,13,-1
 351 680 l 1,14,-1
 351 633 l 1,15,-1
 398 633 l 1,16,-1
 398 587 l 1,17,-1
 351 587 l 1,18,-1
 351 633 l 1,19,-1
 212 633 l 1,20,-1
 212 587 l 1,21,-1
 165 587 l 1,22,-1
 165 214 l 1,23,-1
 212 214 l 1,24,-1
 212 168 l 1,25,-1
 351 168 l 1,26,-1
 351 214 l 1,27,-1
 398 214 l 1,0,-1
398 214 m 1,28,-1
 398 261 l 1,29,-1
 444 261 l 1,30,-1
 444 214 l 1,31,-1
 398 214 l 1,28,-1
398 587 m 1,32,-1
 444 587 l 1,33,-1
 444 540 l 1,34,-1
 398 540 l 1,35,-1
 398 587 l 1,32,-1
EndSplineSet
EndChar

StartChar: D
Encoding: 68 68 38
Width: 563
Flags: W
LayerCount: 2
Fore
SplineSet
351 587 m 1,0,-1
 351 633 l 1,1,-1
 165 633 l 1,2,-1
 165 168 l 1,3,-1
 351 168 l 1,4,-1
 351 214 l 1,5,-1
 398 214 l 1,6,-1
 398 587 l 1,7,-1
 351 587 l 1,0,-1
119 121 m 1,8,-1
 119 680 l 1,9,-1
 351 680 l 1,10,-1
 351 633 l 1,11,-1
 398 633 l 1,12,-1
 398 587 l 1,13,-1
 444 587 l 1,14,-1
 444 214 l 1,15,-1
 398 214 l 1,16,-1
 398 168 l 1,17,-1
 351 168 l 1,18,-1
 351 121 l 1,19,-1
 119 121 l 1,8,-1
EndSplineSet
EndChar

StartChar: E
Encoding: 69 69 39
Width: 563
Flags: W
LayerCount: 2
Fore
SplineSet
142 121 m 1,0,-1
 142 680 l 1,1,-1
 421 680 l 1,2,-1
 421 633 l 1,3,-1
 188 633 l 1,4,-1
 188 446 l 1,5,-1
 374 446 l 1,6,-1
 374 400 l 1,7,-1
 188 400 l 1,8,-1
 188 168 l 1,9,-1
 421 168 l 1,10,-1
 421 121 l 1,11,-1
 142 121 l 1,0,-1
EndSplineSet
EndChar

StartChar: F
Encoding: 70 70 40
Width: 563
Flags: W
LayerCount: 2
Fore
SplineSet
142 121 m 1,0,-1
 142 680 l 1,1,-1
 421 680 l 1,2,-1
 421 633 l 1,3,-1
 188 633 l 1,4,-1
 188 446 l 1,5,-1
 374 446 l 1,6,-1
 374 400 l 1,7,-1
 188 400 l 1,8,-1
 188 121 l 1,9,-1
 142 121 l 1,0,-1
EndSplineSet
EndChar

StartChar: G
Encoding: 71 71 41
Width: 563
Flags: W
LayerCount: 2
Fore
SplineSet
398 220 m 1,0,-1
 398 173 l 1,1,-1
 375 173 l 2,2,3
 358 173 358 173 354.5 170.5 c 128,-1,4
 351 168 351 168 351 151 c 0,5,6
 351 135 351 135 348 131 c 128,-1,7
 345 127 345 127 330 125 c 0,8,9
 305 121 305 121 260 121 c 2,10,-1
 212 121 l 1,11,-1
 212 168 l 1,12,-1
 165 168 l 1,13,-1
 165 214 l 1,14,-1
 119 214 l 1,15,-1
 119 587 l 1,16,-1
 165 587 l 1,17,-1
 165 639 l 1,18,-1
 212 639 l 1,19,-1
 212 685 l 1,20,-1
 351 685 l 1,21,-1
 351 639 l 1,22,-1
 212 639 l 1,23,-1
 212 616 l 2,24,25
 212 600 212 600 208.5 596 c 128,-1,26
 205 592 205 592 188 590 c 2,27,-1
 165 587 l 1,28,-1
 165 214 l 1,29,-1
 212 214 l 1,30,-1
 212 168 l 1,31,-1
 252 168 l 2,32,33
 297 168 297 168 322 171 c 2,34,-1
 351 175 l 1,35,-1
 351 198 l 2,36,37
 351 215 351 215 354 217.5 c 128,-1,38
 357 220 357 220 375 220 c 2,39,-1
 398 220 l 1,0,-1
398 220 m 1,40,-1
 398 407 l 1,41,-1
 305 407 l 1,42,-1
 305 453 l 1,43,-1
 444 453 l 1,44,-1
 444 220 l 1,45,-1
 398 220 l 1,40,-1
398 592 m 1,46,-1
 351 592 l 1,47,-1
 351 639 l 1,48,-1
 398 639 l 1,49,-1
 398 592 l 1,46,-1
398 592 m 1,50,-1
 444 592 l 1,51,-1
 444 546 l 1,52,-1
 398 546 l 1,53,-1
 398 592 l 1,50,-1
EndSplineSet
EndChar

StartChar: H
Encoding: 72 72 42
Width: 563
Flags: W
LayerCount: 2
Fore
SplineSet
119 127 m 1,0,-1
 119 685 l 1,1,-1
 165 685 l 1,2,-1
 165 453 l 1,3,-1
 398 453 l 1,4,-1
 398 685 l 1,5,-1
 444 685 l 1,6,-1
 444 127 l 1,7,-1
 398 127 l 1,8,-1
 398 407 l 1,9,-1
 165 407 l 1,10,-1
 165 127 l 1,11,-1
 119 127 l 1,0,-1
EndSplineSet
EndChar

StartChar: I
Encoding: 73 73 43
Width: 563
Flags: W
LayerCount: 2
Fore
SplineSet
165 639 m 1,0,-1
 165 685 l 1,1,-1
 398 685 l 1,2,-1
 398 639 l 1,3,-1
 305 639 l 1,4,-1
 305 173 l 1,5,-1
 398 173 l 1,6,-1
 398 127 l 1,7,-1
 165 127 l 1,8,-1
 165 173 l 1,9,-1
 259 173 l 1,10,-1
 259 639 l 1,11,-1
 165 639 l 1,0,-1
EndSplineSet
EndChar

StartChar: J
Encoding: 74 74 44
Width: 563
Flags: W
LayerCount: 2
Fore
SplineSet
212 627 m 1,0,-1
 212 674 l 1,1,-1
 444 674 l 1,2,-1
 444 627 l 1,3,-1
 351 627 l 1,4,-1
 351 162 l 1,5,-1
 305 162 l 1,6,-1
 305 115 l 1,7,-1
 165 115 l 1,8,-1
 165 162 l 1,9,-1
 305 162 l 1,10,-1
 305 627 l 1,11,-1
 212 627 l 1,0,-1
165 162 m 1,12,-1
 119 162 l 1,13,-1
 119 208 l 1,14,-1
 165 208 l 1,15,-1
 165 162 l 1,12,-1
EndSplineSet
EndChar

StartChar: K
Encoding: 75 75 45
Width: 563
Flags: W
LayerCount: 2
Fore
SplineSet
119 121 m 1,0,-1
 119 680 l 1,1,-1
 165 680 l 1,2,-1
 165 446 l 1,3,-1
 212 446 l 1,4,-1
 212 494 l 1,5,-1
 258 494 l 1,6,-1
 258 446 l 1,7,-1
 212 446 l 1,8,-1
 212 353 l 1,9,-1
 165 353 l 1,10,-1
 165 121 l 1,11,-1
 119 121 l 1,0,-1
398 168 m 1,12,-1
 351 168 l 1,13,-1
 351 214 l 1,14,-1
 305 214 l 1,15,-1
 305 261 l 1,16,-1
 258 261 l 1,17,-1
 258 307 l 1,18,-1
 212 307 l 1,19,-1
 212 353 l 1,20,-1
 258 353 l 1,21,-1
 258 307 l 1,22,-1
 305 307 l 1,23,-1
 305 261 l 1,24,-1
 351 261 l 1,25,-1
 351 214 l 1,26,-1
 398 214 l 1,27,-1
 398 168 l 1,12,-1
398 168 m 1,28,-1
 444 168 l 1,29,-1
 444 121 l 1,30,-1
 398 121 l 1,31,-1
 398 168 l 1,28,-1
398 633 m 1,32,-1
 398 587 l 1,33,-1
 351 587 l 1,34,-1
 351 540 l 1,35,-1
 305 540 l 1,36,-1
 305 494 l 1,37,-1
 258 494 l 1,38,-1
 258 540 l 1,39,-1
 305 540 l 1,40,-1
 305 587 l 1,41,-1
 351 587 l 1,42,-1
 351 633 l 1,43,-1
 398 633 l 1,32,-1
398 633 m 1,44,-1
 398 680 l 1,45,-1
 444 680 l 1,46,-1
 444 633 l 1,47,-1
 398 633 l 1,44,-1
EndSplineSet
EndChar

StartChar: L
Encoding: 76 76 46
Width: 563
Flags: W
LayerCount: 2
Fore
SplineSet
119 121 m 1,0,-1
 119 680 l 1,1,-1
 165 680 l 1,2,-1
 165 168 l 1,3,-1
 444 168 l 1,4,-1
 444 121 l 1,5,-1
 119 121 l 1,0,-1
EndSplineSet
EndChar

StartChar: M
Encoding: 77 77 47
Width: 563
Flags: W
LayerCount: 2
Fore
SplineSet
165 633 m 1,0,-1
 165 680 l 1,1,-1
 211 680 l 1,2,-1
 211 633 l 1,3,-1
 259 633 l 1,4,-1
 259 587 l 1,5,-1
 211 587 l 1,6,-1
 211 633 l 1,7,-1
 165 633 l 1,8,-1
 165 587 l 1,9,-1
 118 587 l 1,10,-1
 118 633 l 1,11,-1
 165 633 l 1,0,-1
118 587 m 1,12,-1
 118 121 l 1,13,-1
 72 121 l 1,14,-1
 72 587 l 1,15,-1
 118 587 l 1,12,-1
445 587 m 1,16,-1
 398 587 l 1,17,-1
 398 633 l 1,18,-1
 352 633 l 1,19,-1
 352 587 l 1,20,-1
 305 587 l 1,21,-1
 305 400 l 1,22,-1
 259 400 l 1,23,-1
 259 587 l 1,24,-1
 305 587 l 1,25,-1
 305 633 l 1,26,-1
 352 633 l 1,27,-1
 352 680 l 1,28,-1
 398 680 l 1,29,-1
 398 633 l 1,30,-1
 445 633 l 1,31,-1
 445 587 l 1,16,-1
445 587 m 1,32,-1
 491 587 l 1,33,-1
 491 121 l 1,34,-1
 445 121 l 1,35,-1
 445 587 l 1,32,-1
EndSplineSet
EndChar

StartChar: N
Encoding: 78 78 48
Width: 563
Flags: W
LayerCount: 2
Fore
SplineSet
95 121 m 1,0,-1
 95 680 l 1,1,-1
 188 680 l 1,2,-1
 188 587 l 1,3,-1
 141 587 l 1,4,-1
 141 121 l 1,5,-1
 95 121 l 1,0,-1
375 214 m 1,6,-1
 328 214 l 1,7,-1
 328 307 l 1,8,-1
 282 307 l 1,9,-1
 282 400 l 1,10,-1
 234 400 l 1,11,-1
 234 494 l 1,12,-1
 188 494 l 1,13,-1
 188 587 l 1,14,-1
 234 587 l 1,15,-1
 234 494 l 1,16,-1
 282 494 l 1,17,-1
 282 400 l 1,18,-1
 328 400 l 1,19,-1
 328 307 l 1,20,-1
 375 307 l 1,21,-1
 375 214 l 1,6,-1
375 214 m 1,22,-1
 421 214 l 1,23,-1
 421 680 l 1,24,-1
 468 680 l 1,25,-1
 468 121 l 1,26,-1
 375 121 l 1,27,-1
 375 214 l 1,22,-1
EndSplineSet
EndChar

StartChar: O
Encoding: 79 79 49
Width: 563
Flags: W
LayerCount: 2
Fore
SplineSet
398 587 m 1,0,-1
 398 633 l 1,1,-1
 165 633 l 1,2,-1
 165 587 l 1,3,-1
 118 587 l 1,4,-1
 118 214 l 1,5,-1
 165 214 l 1,6,-1
 165 168 l 1,7,-1
 398 168 l 1,8,-1
 398 214 l 1,9,-1
 445 214 l 1,10,-1
 445 587 l 1,11,-1
 398 587 l 1,0,-1
118 587 m 1,12,-1
 118 633 l 1,13,-1
 165 633 l 1,14,-1
 165 680 l 1,15,-1
 398 680 l 1,16,-1
 398 633 l 1,17,-1
 445 633 l 1,18,-1
 445 587 l 1,19,-1
 491 587 l 1,20,-1
 491 214 l 1,21,-1
 445 214 l 1,22,-1
 445 168 l 1,23,-1
 398 168 l 1,24,-1
 398 121 l 1,25,-1
 165 121 l 1,26,-1
 165 168 l 1,27,-1
 118 168 l 1,28,-1
 118 214 l 1,29,-1
 72 214 l 1,30,-1
 72 587 l 1,31,-1
 118 587 l 1,12,-1
EndSplineSet
EndChar

StartChar: P
Encoding: 80 80 50
Width: 563
Flags: W
LayerCount: 2
Fore
SplineSet
351 587 m 1,0,-1
 351 633 l 1,1,-1
 165 633 l 1,2,-1
 165 446 l 1,3,-1
 351 446 l 1,4,-1
 351 494 l 1,5,-1
 398 494 l 1,6,-1
 398 587 l 1,7,-1
 351 587 l 1,0,-1
119 121 m 1,8,-1
 119 680 l 1,9,-1
 351 680 l 1,10,-1
 351 633 l 1,11,-1
 398 633 l 1,12,-1
 398 587 l 1,13,-1
 444 587 l 1,14,-1
 444 494 l 1,15,-1
 398 494 l 1,16,-1
 398 446 l 1,17,-1
 351 446 l 1,18,-1
 351 400 l 1,19,-1
 165 400 l 1,20,-1
 165 121 l 1,21,-1
 119 121 l 1,8,-1
EndSplineSet
EndChar

StartChar: Q
Encoding: 81 81 51
Width: 563
Flags: W
LayerCount: 2
Fore
SplineSet
95 592 m 1,0,-1
 95 220 l 1,1,-1
 142 220 l 1,2,-1
 142 173 l 1,3,-1
 374 173 l 1,4,-1
 374 220 l 1,5,-1
 421 220 l 1,6,-1
 421 592 l 1,7,-1
 374 592 l 1,8,-1
 374 639 l 1,9,-1
 142 639 l 1,10,-1
 142 592 l 1,11,-1
 95 592 l 1,0,-1
95 592 m 1,12,-1
 95 639 l 1,13,-1
 142 639 l 1,14,-1
 142 685 l 1,15,-1
 374 685 l 1,16,-1
 374 639 l 1,17,-1
 421 639 l 1,18,-1
 421 592 l 1,19,-1
 467 592 l 1,20,-1
 467 220 l 1,21,-1
 421 220 l 1,22,-1
 421 173 l 1,23,-1
 374 173 l 1,24,-1
 374 127 l 1,25,-1
 142 127 l 1,26,-1
 142 173 l 1,27,-1
 95 173 l 1,28,-1
 95 220 l 1,29,-1
 49 220 l 1,30,-1
 49 592 l 1,31,-1
 95 592 l 1,12,-1
421 173 m 1,32,-1
 515 173 l 1,33,-1
 515 127 l 1,34,-1
 421 127 l 1,35,-1
 421 173 l 1,32,-1
EndSplineSet
EndChar

StartChar: R
Encoding: 82 82 52
Width: 563
Flags: W
LayerCount: 2
Fore
SplineSet
119 127 m 1,0,-1
 119 685 l 1,1,-1
 351 685 l 1,2,-1
 351 639 l 1,3,-1
 165 639 l 1,4,-1
 165 453 l 1,5,-1
 351 453 l 1,6,-1
 351 500 l 1,7,-1
 398 500 l 1,8,-1
 398 592 l 1,9,-1
 351 592 l 1,10,-1
 351 639 l 1,11,-1
 398 639 l 1,12,-1
 398 592 l 1,13,-1
 444 592 l 1,14,-1
 444 500 l 1,15,-1
 398 500 l 1,16,-1
 398 453 l 1,17,-1
 351 453 l 1,18,-1
 351 407 l 1,19,-1
 165 407 l 1,20,-1
 165 127 l 1,21,-1
 119 127 l 1,0,-1
398 359 m 1,22,-1
 351 359 l 1,23,-1
 351 407 l 1,24,-1
 398 407 l 1,25,-1
 398 359 l 1,22,-1
398 359 m 1,26,-1
 444 359 l 1,27,-1
 444 127 l 1,28,-1
 398 127 l 1,29,-1
 398 359 l 1,26,-1
EndSplineSet
EndChar

StartChar: S
Encoding: 83 83 53
Width: 563
Flags: W
LayerCount: 2
Fore
SplineSet
118 216 m 1,0,-1
 164 216 l 1,1,-1
 164 170 l 1,2,-1
 399 170 l 1,3,-1
 399 216 l 1,4,-1
 446 216 l 1,5,-1
 446 357 l 1,6,-1
 399 357 l 1,7,-1
 399 403 l 1,8,-1
 164 403 l 1,9,-1
 164 451 l 1,10,-1
 118 451 l 1,11,-1
 118 498 l 1,12,-1
 71 498 l 1,13,-1
 71 591 l 1,14,-1
 118 591 l 1,15,-1
 118 638 l 1,16,-1
 164 638 l 1,17,-1
 164 685 l 1,18,-1
 399 685 l 1,19,-1
 399 638 l 1,20,-1
 164 638 l 1,21,-1
 164 591 l 1,22,-1
 118 591 l 1,23,-1
 118 498 l 1,24,-1
 164 498 l 1,25,-1
 164 451 l 1,26,-1
 399 451 l 1,27,-1
 399 403 l 1,28,-1
 446 403 l 1,29,-1
 446 357 l 1,30,-1
 492 357 l 1,31,-1
 492 216 l 1,32,-1
 446 216 l 1,33,-1
 446 170 l 1,34,-1
 399 170 l 1,35,-1
 399 123 l 1,36,-1
 164 123 l 1,37,-1
 164 170 l 1,38,-1
 118 170 l 1,39,-1
 118 216 l 1,0,-1
118 216 m 1,40,-1
 71 216 l 1,41,-1
 71 263 l 1,42,-1
 118 263 l 1,43,-1
 118 216 l 1,40,-1
446 591 m 1,44,-1
 399 591 l 1,45,-1
 399 638 l 1,46,-1
 446 638 l 1,47,-1
 446 591 l 1,44,-1
446 591 m 1,48,-1
 492 591 l 1,49,-1
 492 544 l 1,50,-1
 446 544 l 1,51,-1
 446 591 l 1,48,-1
EndSplineSet
EndChar

StartChar: T
Encoding: 84 84 54
Width: 563
Flags: W
LayerCount: 2
Fore
SplineSet
121 638 m 1,0,-1
 121 685 l 1,1,-1
 442 685 l 1,2,-1
 442 638 l 1,3,-1
 308 638 l 1,4,-1
 308 123 l 1,5,-1
 261 123 l 1,6,-1
 261 638 l 1,7,-1
 121 638 l 1,0,-1
EndSplineSet
EndChar

StartChar: U
Encoding: 85 85 55
Width: 563
Flags: W
LayerCount: 2
Fore
SplineSet
118 123 m 1,0,-1
 118 685 l 1,1,-1
 165 685 l 1,2,-1
 165 170 l 1,3,-1
 398 170 l 1,4,-1
 398 685 l 1,5,-1
 445 685 l 1,6,-1
 445 123 l 1,7,-1
 118 123 l 1,0,-1
EndSplineSet
EndChar

StartChar: V
Encoding: 86 86 56
Width: 563
Flags: W
LayerCount: 2
Fore
SplineSet
71 544 m 1,0,-1
 71 685 l 1,1,-1
 118 685 l 1,2,-1
 118 544 l 1,3,-1
 71 544 l 1,0,-1
446 544 m 1,4,-1
 446 451 l 1,5,-1
 399 451 l 1,6,-1
 399 310 l 1,7,-1
 352 310 l 1,8,-1
 352 216 l 1,9,-1
 306 216 l 1,10,-1
 306 123 l 1,11,-1
 259 123 l 1,12,-1
 259 216 l 1,13,-1
 211 216 l 1,14,-1
 211 310 l 1,15,-1
 164 310 l 1,16,-1
 164 451 l 1,17,-1
 118 451 l 1,18,-1
 118 544 l 1,19,-1
 164 544 l 1,20,-1
 164 451 l 1,21,-1
 211 451 l 1,22,-1
 211 310 l 1,23,-1
 259 310 l 1,24,-1
 259 216 l 1,25,-1
 306 216 l 1,26,-1
 306 310 l 1,27,-1
 352 310 l 1,28,-1
 352 451 l 1,29,-1
 399 451 l 1,30,-1
 399 544 l 1,31,-1
 446 544 l 1,4,-1
446 544 m 1,32,-1
 446 685 l 1,33,-1
 492 685 l 1,34,-1
 492 544 l 1,35,-1
 446 544 l 1,32,-1
EndSplineSet
EndChar

StartChar: W
Encoding: 87 87 57
Width: 563
Flags: W
LayerCount: 2
Fore
SplineSet
71 170 m 1,0,-1
 71 685 l 1,1,-1
 118 685 l 1,2,-1
 118 170 l 1,3,-1
 71 170 l 1,0,-1
446 170 m 1,4,-1
 446 123 l 1,5,-1
 352 123 l 1,6,-1
 352 170 l 1,7,-1
 306 170 l 1,8,-1
 306 216 l 1,9,-1
 259 216 l 1,10,-1
 259 170 l 1,11,-1
 211 170 l 1,12,-1
 211 123 l 1,13,-1
 118 123 l 1,14,-1
 118 170 l 1,15,-1
 211 170 l 1,16,-1
 211 216 l 1,17,-1
 259 216 l 1,18,-1
 259 403 l 1,19,-1
 306 403 l 1,20,-1
 306 216 l 1,21,-1
 352 216 l 1,22,-1
 352 170 l 1,23,-1
 446 170 l 1,4,-1
446 170 m 1,24,-1
 446 685 l 1,25,-1
 492 685 l 1,26,-1
 492 170 l 1,27,-1
 446 170 l 1,24,-1
EndSplineSet
EndChar

StartChar: X
Encoding: 88 88 58
Width: 563
Flags: W
LayerCount: 2
Fore
SplineSet
24 638 m 1,0,-1
 24 685 l 1,1,-1
 71 685 l 1,2,-1
 71 638 l 1,3,-1
 24 638 l 1,0,-1
71 170 m 1,4,-1
 71 216 l 1,5,-1
 117 216 l 1,6,-1
 117 263 l 1,7,-1
 164 263 l 1,8,-1
 164 310 l 1,9,-1
 211 310 l 1,10,-1
 211 357 l 1,11,-1
 259 357 l 1,12,-1
 259 451 l 1,13,-1
 211 451 l 1,14,-1
 211 498 l 1,15,-1
 164 498 l 1,16,-1
 164 544 l 1,17,-1
 117 544 l 1,18,-1
 117 591 l 1,19,-1
 71 591 l 1,20,-1
 71 638 l 1,21,-1
 117 638 l 1,22,-1
 117 591 l 1,23,-1
 164 591 l 1,24,-1
 164 544 l 1,25,-1
 211 544 l 1,26,-1
 211 498 l 1,27,-1
 259 498 l 1,28,-1
 259 451 l 1,29,-1
 305 451 l 1,30,-1
 305 498 l 1,31,-1
 352 498 l 1,32,-1
 352 451 l 1,33,-1
 305 451 l 1,34,-1
 305 357 l 1,35,-1
 259 357 l 1,36,-1
 259 310 l 1,37,-1
 211 310 l 1,38,-1
 211 263 l 1,39,-1
 164 263 l 1,40,-1
 164 216 l 1,41,-1
 117 216 l 1,42,-1
 117 170 l 1,43,-1
 71 170 l 1,4,-1
71 170 m 1,44,-1
 71 123 l 1,45,-1
 24 123 l 1,46,-1
 24 170 l 1,47,-1
 71 170 l 1,44,-1
492 170 m 1,48,-1
 445 170 l 1,49,-1
 445 216 l 1,50,-1
 399 216 l 1,51,-1
 399 263 l 1,52,-1
 352 263 l 1,53,-1
 352 310 l 1,54,-1
 305 310 l 1,55,-1
 305 357 l 1,56,-1
 352 357 l 1,57,-1
 352 310 l 1,58,-1
 399 310 l 1,59,-1
 399 263 l 1,60,-1
 445 263 l 1,61,-1
 445 216 l 1,62,-1
 492 216 l 1,63,-1
 492 170 l 1,48,-1
492 170 m 1,64,-1
 539 170 l 1,65,-1
 539 123 l 1,66,-1
 492 123 l 1,67,-1
 492 170 l 1,64,-1
492 638 m 1,68,-1
 492 591 l 1,69,-1
 445 591 l 1,70,-1
 445 544 l 1,71,-1
 399 544 l 1,72,-1
 399 498 l 1,73,-1
 352 498 l 1,74,-1
 352 544 l 1,75,-1
 399 544 l 1,76,-1
 399 591 l 1,77,-1
 445 591 l 1,78,-1
 445 638 l 1,79,-1
 492 638 l 1,68,-1
492 638 m 1,80,-1
 492 685 l 1,81,-1
 539 685 l 1,82,-1
 539 638 l 1,83,-1
 492 638 l 1,80,-1
EndSplineSet
EndChar

StartChar: Y
Encoding: 89 89 59
Width: 563
Flags: W
LayerCount: 2
Fore
SplineSet
118 451 m 1,0,-1
 118 685 l 1,1,-1
 165 685 l 1,2,-1
 165 451 l 1,3,-1
 118 451 l 1,0,-1
398 451 m 1,4,-1
 398 403 l 1,5,-1
 352 403 l 1,6,-1
 352 357 l 1,7,-1
 305 357 l 1,8,-1
 305 123 l 1,9,-1
 258 123 l 1,10,-1
 258 357 l 1,11,-1
 211 357 l 1,12,-1
 211 403 l 1,13,-1
 165 403 l 1,14,-1
 165 451 l 1,15,-1
 211 451 l 1,16,-1
 211 403 l 1,17,-1
 352 403 l 1,18,-1
 352 451 l 1,19,-1
 398 451 l 1,4,-1
398 451 m 1,20,-1
 398 685 l 1,21,-1
 445 685 l 1,22,-1
 445 451 l 1,23,-1
 398 451 l 1,20,-1
EndSplineSet
EndChar

StartChar: Z
Encoding: 90 90 60
Width: 563
Flags: W
LayerCount: 2
Fore
SplineSet
48 644 m 1,0,-1
 48 690 l 1,1,-1
 516 690 l 1,2,-1
 516 597 l 1,3,-1
 468 597 l 1,4,-1
 468 644 l 1,5,-1
 48 644 l 1,0,-1
141 269 m 1,6,-1
 141 316 l 1,7,-1
 188 316 l 1,8,-1
 188 362 l 1,9,-1
 235 362 l 1,10,-1
 235 410 l 1,11,-1
 282 410 l 1,12,-1
 282 457 l 1,13,-1
 328 457 l 1,14,-1
 328 503 l 1,15,-1
 375 503 l 1,16,-1
 375 550 l 1,17,-1
 422 550 l 1,18,-1
 422 597 l 1,19,-1
 468 597 l 1,20,-1
 468 550 l 1,21,-1
 422 550 l 1,22,-1
 422 503 l 1,23,-1
 375 503 l 1,24,-1
 375 457 l 1,25,-1
 328 457 l 1,26,-1
 328 410 l 1,27,-1
 282 410 l 1,28,-1
 282 362 l 1,29,-1
 235 362 l 1,30,-1
 235 316 l 1,31,-1
 188 316 l 1,32,-1
 188 269 l 1,33,-1
 141 269 l 1,6,-1
141 269 m 1,34,-1
 141 222 l 1,35,-1
 95 222 l 1,36,-1
 95 175 l 1,37,-1
 516 175 l 1,38,-1
 516 129 l 1,39,-1
 317 129 l 2,40,41
 122 129 122 129 83 125 c 2,42,-1
 48 121 l 1,43,-1
 48 216 l 1,44,-1
 71 220 l 2,45,46
 87 222 87 222 91 226 c 128,-1,47
 95 230 95 230 95 247 c 0,48,49
 95 264 95 264 98 266.5 c 128,-1,50
 101 269 101 269 118 269 c 2,51,-1
 141 269 l 1,34,-1
EndSplineSet
EndChar

StartChar: bracketleft
Encoding: 91 91 61
Width: 563
Flags: W
LayerCount: 2
Fore
SplineSet
211 82 m 1,0,-1
 211 737 l 1,1,-1
 352 737 l 1,2,-1
 352 690 l 1,3,-1
 259 690 l 1,4,-1
 259 129 l 1,5,-1
 352 129 l 1,6,-1
 352 82 l 1,7,-1
 211 82 l 1,0,-1
EndSplineSet
EndChar

StartChar: backslash
Encoding: 92 92 62
Width: 563
Flags: W
LayerCount: 2
Fore
SplineSet
142 587 m 1,0,-1
 142 680 l 1,1,-1
 188 680 l 1,2,-1
 188 587 l 1,3,-1
 142 587 l 1,0,-1
374 214 m 1,4,-1
 328 214 l 1,5,-1
 328 307 l 1,6,-1
 281 307 l 1,7,-1
 281 400 l 1,8,-1
 235 400 l 1,9,-1
 235 494 l 1,10,-1
 188 494 l 1,11,-1
 188 587 l 1,12,-1
 235 587 l 1,13,-1
 235 494 l 1,14,-1
 281 494 l 1,15,-1
 281 400 l 1,16,-1
 328 400 l 1,17,-1
 328 307 l 1,18,-1
 374 307 l 1,19,-1
 374 214 l 1,4,-1
374 214 m 1,20,-1
 421 214 l 1,21,-1
 421 121 l 1,22,-1
 374 121 l 1,23,-1
 374 214 l 1,20,-1
EndSplineSet
EndChar

StartChar: bracketright
Encoding: 93 93 63
Width: 563
Flags: W
LayerCount: 2
Fore
SplineSet
212 680 m 1,0,-1
 212 726 l 1,1,-1
 351 726 l 1,2,-1
 351 75 l 1,3,-1
 212 75 l 1,4,-1
 212 121 l 1,5,-1
 305 121 l 1,6,-1
 305 680 l 1,7,-1
 212 680 l 1,0,-1
EndSplineSet
EndChar

StartChar: asciicircum
Encoding: 94 94 64
Width: 563
Flags: W
LayerCount: 2
Fore
SplineSet
203 587 m 1,0,-1
 203 633 l 1,1,-1
 249 633 l 1,2,-1
 249 680 l 1,3,-1
 296 680 l 1,4,-1
 296 633 l 1,5,-1
 343 633 l 1,6,-1
 343 587 l 1,7,-1
 296 587 l 1,8,-1
 296 633 l 1,9,-1
 249 633 l 1,10,-1
 249 587 l 1,11,-1
 203 587 l 1,0,-1
203 587 m 1,12,-1
 203 540 l 1,13,-1
 156 540 l 1,14,-1
 156 517 l 2,15,16
 156 502 156 502 154 498 c 128,-1,17
 152 494 152 494 142 494 c 0,18,19
 133 494 133 494 130 498 c 128,-1,20
 127 502 127 502 127 517 c 128,-1,21
 127 532 127 532 130 536 c 128,-1,22
 133 540 133 540 142 540 c 0,23,24
 152 540 152 540 154 544 c 128,-1,25
 156 548 156 548 156 563 c 2,26,-1
 156 587 l 1,27,-1
 203 587 l 1,12,-1
390 540 m 1,28,-1
 343 540 l 1,29,-1
 343 587 l 1,30,-1
 390 587 l 1,31,-1
 390 540 l 1,28,-1
390 540 m 1,32,-1
 436 540 l 1,33,-1
 436 494 l 1,34,-1
 390 494 l 1,35,-1
 390 540 l 1,32,-1
EndSplineSet
EndChar

StartChar: underscore
Encoding: 95 95 65
Width: 563
Flags: W
LayerCount: 2
Fore
SplineSet
95 75 m 1,0,-1
 95 121 l 1,1,-1
 468 121 l 1,2,-1
 468 75 l 1,3,-1
 95 75 l 1,0,-1
EndSplineSet
EndChar

StartChar: grave
Encoding: 96 96 66
Width: 563
Flags: W
LayerCount: 2
Fore
SplineSet
235 592 m 1,0,-1
 235 639 l 1,1,-1
 281 639 l 1,2,-1
 281 592 l 1,3,-1
 235 592 l 1,0,-1
281 592 m 1,4,-1
 328 592 l 1,5,-1
 328 546 l 1,6,-1
 281 546 l 1,7,-1
 281 592 l 1,4,-1
EndSplineSet
EndChar

StartChar: a
Encoding: 97 97 67
Width: 563
Flags: W
LayerCount: 2
Fore
SplineSet
188 173 m 1,0,-1
 281 173 l 1,1,-1
 281 220 l 1,2,-1
 328 220 l 1,3,-1
 328 266 l 1,4,-1
 374 266 l 1,5,-1
 374 407 l 1,6,-1
 188 407 l 1,7,-1
 188 173 l 1,0,-1
188 173 m 1,8,-1
 142 173 l 1,9,-1
 142 407 l 1,10,-1
 188 407 l 1,11,-1
 188 453 l 1,12,-1
 374 453 l 1,13,-1
 374 407 l 1,14,-1
 421 407 l 1,15,-1
 421 127 l 1,16,-1
 374 127 l 1,17,-1
 374 220 l 1,18,-1
 328 220 l 1,19,-1
 328 173 l 1,20,-1
 281 173 l 1,21,-1
 281 127 l 1,22,-1
 188 127 l 1,23,-1
 188 173 l 1,8,-1
EndSplineSet
EndChar

StartChar: b
Encoding: 98 98 68
Width: 563
Flags: W
LayerCount: 2
Fore
SplineSet
142 173 m 1,0,-1
 142 639 l 1,1,-1
 188 639 l 1,2,-1
 188 407 l 1,3,-1
 235 407 l 1,4,-1
 235 453 l 1,5,-1
 374 453 l 1,6,-1
 374 407 l 1,7,-1
 235 407 l 1,8,-1
 235 359 l 1,9,-1
 188 359 l 1,10,-1
 188 173 l 1,11,-1
 374 173 l 1,12,-1
 374 407 l 1,13,-1
 421 407 l 1,14,-1
 421 173 l 1,15,-1
 374 173 l 1,16,-1
 374 127 l 1,17,-1
 188 127 l 1,18,-1
 188 173 l 1,19,-1
 142 173 l 1,0,-1
EndSplineSet
EndChar

StartChar: c
Encoding: 99 99 69
Width: 563
Flags: W
LayerCount: 2
Fore
SplineSet
374 173 m 1,0,-1
 374 127 l 1,1,-1
 188 127 l 1,2,-1
 188 173 l 1,3,-1
 142 173 l 1,4,-1
 142 407 l 1,5,-1
 188 407 l 1,6,-1
 188 173 l 1,7,-1
 374 173 l 1,0,-1
374 173 m 1,8,-1
 374 220 l 1,9,-1
 421 220 l 1,10,-1
 421 173 l 1,11,-1
 374 173 l 1,8,-1
374 404 m 1,12,-1
 398 408 l 1,13,-1
 421 410 l 1,14,-1
 421 359 l 1,15,-1
 374 359 l 1,16,-1
 374 404 l 1,12,-1
374 407 m 1,17,-1
 188 407 l 1,18,-1
 188 453 l 1,19,-1
 374 453 l 1,20,-1
 374 407 l 1,17,-1
EndSplineSet
EndChar

StartChar: d
Encoding: 100 100 70
Width: 563
Flags: W
LayerCount: 2
Fore
SplineSet
398 412 m 1,0,-1
 398 645 l 1,1,-1
 444 645 l 1,2,-1
 444 179 l 1,3,-1
 398 179 l 1,4,-1
 398 366 l 1,5,-1
 351 366 l 1,6,-1
 351 412 l 1,7,-1
 165 412 l 1,8,-1
 165 179 l 1,9,-1
 398 179 l 1,10,-1
 398 133 l 1,11,-1
 165 133 l 1,12,-1
 165 179 l 1,13,-1
 119 179 l 1,14,-1
 119 412 l 1,15,-1
 165 412 l 1,16,-1
 165 459 l 1,17,-1
 351 459 l 1,18,-1
 351 412 l 1,19,-1
 398 412 l 1,0,-1
EndSplineSet
EndChar

StartChar: e
Encoding: 101 101 71
Width: 563
Flags: W
LayerCount: 2
Fore
SplineSet
374 173 m 1,0,-1
 374 127 l 1,1,-1
 188 127 l 1,2,-1
 188 173 l 1,3,-1
 142 173 l 1,4,-1
 142 407 l 1,5,-1
 188 407 l 1,6,-1
 188 313 l 1,7,-1
 374 313 l 1,8,-1
 374 407 l 1,9,-1
 188 407 l 1,10,-1
 188 453 l 1,11,-1
 374 453 l 1,12,-1
 374 407 l 1,13,-1
 421 407 l 1,14,-1
 421 313 l 1,15,-1
 374 313 l 1,16,-1
 374 266 l 1,17,-1
 188 266 l 1,18,-1
 188 173 l 1,19,-1
 374 173 l 1,0,-1
374 173 m 1,20,-1
 374 220 l 1,21,-1
 421 220 l 1,22,-1
 421 173 l 1,23,-1
 374 173 l 1,20,-1
EndSplineSet
EndChar

StartChar: f
Encoding: 102 102 72
Width: 563
Flags: W
LayerCount: 2
Fore
SplineSet
282 592 m 1,0,-1
 282 639 l 1,1,-1
 375 639 l 1,2,-1
 375 592 l 1,3,-1
 282 592 l 1,4,-1
 282 453 l 1,5,-1
 375 453 l 1,6,-1
 375 407 l 1,7,-1
 282 407 l 1,8,-1
 282 127 l 1,9,-1
 234 127 l 1,10,-1
 234 407 l 1,11,-1
 188 407 l 1,12,-1
 188 453 l 1,13,-1
 234 453 l 1,14,-1
 234 592 l 1,15,-1
 282 592 l 1,0,-1
EndSplineSet
EndChar

StartChar: g
Encoding: 103 103 73
Width: 563
Flags: W
LayerCount: 2
Fore
SplineSet
328 220 m 1,0,-1
 328 266 l 1,1,-1
 374 266 l 1,2,-1
 374 407 l 1,3,-1
 188 407 l 1,4,-1
 188 220 l 1,5,-1
 328 220 l 1,0,-1
328 220 m 1,6,-1
 328 173 l 1,7,-1
 188 173 l 1,8,-1
 188 220 l 1,9,-1
 142 220 l 1,10,-1
 142 407 l 1,11,-1
 188 407 l 1,12,-1
 188 453 l 1,13,-1
 374 453 l 1,14,-1
 374 407 l 1,15,-1
 421 407 l 1,16,-1
 421 34 l 1,17,-1
 374 34 l 1,18,-1
 374 220 l 1,19,-1
 328 220 l 1,6,-1
188 34 m 1,20,-1
 374 34 l 1,21,-1
 374 -12 l 1,22,-1
 188 -12 l 1,23,-1
 188 34 l 1,20,-1
188 34 m 1,24,-1
 142 34 l 1,25,-1
 142 80 l 1,26,-1
 188 80 l 1,27,-1
 188 34 l 1,24,-1
EndSplineSet
EndChar

StartChar: h
Encoding: 104 104 74
Width: 563
Flags: W
LayerCount: 2
Fore
SplineSet
122 515 m 2,0,-1
 122 639 l 1,1,-1
 168 639 l 1,2,-1
 168 407 l 1,3,-1
 215 407 l 1,4,-1
 215 453 l 1,5,-1
 401 453 l 1,6,-1
 401 429 l 2,7,8
 401 413 401 413 404 410 c 128,-1,9
 407 407 407 407 422 407 c 2,10,-1
 441 407 l 1,11,-1
 441 127 l 1,12,-1
 401 127 l 1,13,-1
 401 407 l 1,14,-1
 215 407 l 1,15,-1
 215 359 l 1,16,-1
 167 359 l 1,17,18
 169 320 169 320 171 243 c 128,-1,19
 173 166 173 166 175 127 c 1,20,-1
 129 127 l 1,21,-1
 126 259 l 2,22,23
 122 402 122 402 122 515 c 2,0,-1
EndSplineSet
EndChar

StartChar: i
Encoding: 105 105 75
Width: 563
Flags: W
LayerCount: 2
Fore
SplineSet
259 127 m 1,0,-1
 259 453 l 1,1,-1
 305 453 l 1,2,-1
 305 127 l 1,3,-1
 259 127 l 1,0,-1
259 546 m 1,4,-1
 259 639 l 1,5,-1
 305 639 l 1,6,-1
 305 546 l 1,7,-1
 259 546 l 1,4,-1
EndSplineSet
EndChar

StartChar: j
Encoding: 106 106 76
Width: 563
Flags: W
LayerCount: 2
Fore
SplineSet
352 546 m 1,0,-1
 352 639 l 1,1,-1
 398 639 l 1,2,-1
 398 546 l 1,3,-1
 352 546 l 1,0,-1
211 34 m 1,4,-1
 352 34 l 1,5,-1
 352 453 l 1,6,-1
 398 453 l 1,7,-1
 398 34 l 1,8,-1
 352 34 l 1,9,-1
 352 -12 l 1,10,-1
 211 -12 l 1,11,-1
 211 34 l 1,4,-1
211 34 m 1,12,-1
 165 34 l 1,13,-1
 165 127 l 1,14,-1
 211 127 l 1,15,-1
 211 34 l 1,12,-1
EndSplineSet
EndChar

StartChar: k
Encoding: 107 107 77
Width: 563
Flags: W
LayerCount: 2
Fore
SplineSet
165 127 m 1,0,-1
 165 639 l 1,1,-1
 211 639 l 1,2,-1
 211 407 l 1,3,-1
 305 407 l 1,4,-1
 305 313 l 1,5,-1
 259 313 l 1,6,-1
 259 359 l 1,7,-1
 211 359 l 1,8,-1
 211 127 l 1,9,-1
 165 127 l 1,0,-1
352 220 m 1,10,-1
 305 220 l 1,11,-1
 305 313 l 1,12,-1
 352 313 l 1,13,-1
 352 220 l 1,10,-1
352 220 m 1,14,-1
 398 220 l 1,15,-1
 398 127 l 1,16,-1
 352 127 l 1,17,-1
 352 220 l 1,14,-1
305 407 m 1,18,-1
 305 453 l 1,19,-1
 398 453 l 1,20,-1
 398 407 l 1,21,-1
 305 407 l 1,18,-1
EndSplineSet
EndChar

StartChar: l
Encoding: 108 108 78
Width: 563
Flags: W
LayerCount: 2
Fore
SplineSet
188 592 m 1,0,-1
 188 639 l 1,1,-1
 282 639 l 1,2,-1
 282 173 l 1,3,-1
 328 173 l 1,4,-1
 328 127 l 1,5,-1
 234 127 l 1,6,-1
 234 592 l 1,7,-1
 188 592 l 1,0,-1
328 173 m 1,8,-1
 328 220 l 1,9,-1
 375 220 l 1,10,-1
 375 173 l 1,11,-1
 328 173 l 1,8,-1
EndSplineSet
EndChar

StartChar: m
Encoding: 109 109 79
Width: 563
Flags: W
LayerCount: 2
Fore
SplineSet
445 412 m 1,0,-1
 305 412 l 1,1,-1
 305 133 l 1,2,-1
 259 133 l 1,3,-1
 259 412 l 1,4,-1
 118 412 l 1,5,-1
 118 133 l 1,6,-1
 72 133 l 1,7,-1
 72 412 l 1,8,-1
 118 412 l 1,9,-1
 118 459 l 1,10,-1
 259 459 l 1,11,-1
 259 412 l 1,12,-1
 305 412 l 1,13,-1
 305 459 l 1,14,-1
 445 459 l 1,15,-1
 445 412 l 1,0,-1
445 412 m 1,16,-1
 491 412 l 1,17,-1
 491 133 l 1,18,-1
 445 133 l 1,19,-1
 445 412 l 1,16,-1
EndSplineSet
EndChar

StartChar: n
Encoding: 110 110 80
Width: 563
Flags: W
LayerCount: 2
Fore
SplineSet
188 400 m 1,0,-1
 188 121 l 1,1,-1
 142 121 l 1,2,-1
 142 400 l 1,3,-1
 188 400 l 1,0,-1
188 400 m 1,4,-1
 188 446 l 1,5,-1
 374 446 l 1,6,-1
 374 400 l 1,7,-1
 421 400 l 1,8,-1
 421 121 l 1,9,-1
 374 121 l 1,10,-1
 374 400 l 1,11,-1
 188 400 l 1,4,-1
EndSplineSet
EndChar

StartChar: o
Encoding: 111 111 81
Width: 563
Flags: W
LayerCount: 2
Fore
SplineSet
188 168 m 1,0,-1
 374 168 l 1,1,-1
 374 400 l 1,2,-1
 188 400 l 1,3,-1
 188 168 l 1,0,-1
188 168 m 1,4,-1
 142 168 l 1,5,-1
 142 400 l 1,6,-1
 188 400 l 1,7,-1
 188 446 l 1,8,-1
 374 446 l 1,9,-1
 374 400 l 1,10,-1
 421 400 l 1,11,-1
 421 168 l 1,12,-1
 374 168 l 1,13,-1
 374 121 l 1,14,-1
 188 121 l 1,15,-1
 188 168 l 1,4,-1
EndSplineSet
EndChar

StartChar: p
Encoding: 112 112 82
Width: 563
Flags: W
LayerCount: 2
Fore
SplineSet
374 168 m 1,0,-1
 374 400 l 1,1,-1
 188 400 l 1,2,-1
 188 168 l 1,3,-1
 374 168 l 1,0,-1
374 168 m 1,4,-1
 374 121 l 1,5,-1
 188 121 l 1,6,-1
 188 -18 l 1,7,-1
 142 -18 l 1,8,-1
 142 400 l 1,9,-1
 188 400 l 1,10,-1
 188 446 l 1,11,-1
 374 446 l 1,12,-1
 374 400 l 1,13,-1
 421 400 l 1,14,-1
 421 168 l 1,15,-1
 374 168 l 1,4,-1
EndSplineSet
EndChar

StartChar: q
Encoding: 113 113 83
Width: 563
Flags: W
LayerCount: 2
Fore
SplineSet
328 168 m 1,0,-1
 328 400 l 1,1,-1
 141 400 l 1,2,-1
 141 168 l 1,3,-1
 328 168 l 1,0,-1
141 168 m 1,4,-1
 95 168 l 1,5,-1
 95 400 l 1,6,-1
 141 400 l 1,7,-1
 141 446 l 1,8,-1
 328 446 l 1,9,-1
 328 400 l 1,10,-1
 375 400 l 1,11,-1
 375 28 l 1,12,-1
 421 28 l 1,13,-1
 421 -18 l 1,14,-1
 328 -18 l 1,15,-1
 328 121 l 1,16,-1
 141 121 l 1,17,-1
 141 168 l 1,4,-1
421 28 m 1,18,-1
 421 75 l 1,19,-1
 468 75 l 1,20,-1
 468 28 l 1,21,-1
 421 28 l 1,18,-1
EndSplineSet
EndChar

StartChar: r
Encoding: 114 114 84
Width: 563
Flags: W
LayerCount: 2
Fore
SplineSet
188 400 m 1,0,-1
 188 121 l 1,1,-1
 142 121 l 1,2,-1
 142 400 l 1,3,-1
 188 400 l 1,0,-1
188 400 m 1,4,-1
 188 446 l 1,5,-1
 374 446 l 1,6,-1
 374 400 l 1,7,-1
 421 400 l 1,8,-1
 421 353 l 1,9,-1
 374 353 l 1,10,-1
 374 400 l 1,11,-1
 188 400 l 1,4,-1
EndSplineSet
EndChar

StartChar: s
Encoding: 115 115 85
Width: 563
Flags: W
LayerCount: 2
Fore
SplineSet
352 173 m 1,0,-1
 352 266 l 1,1,-1
 285 266 l 2,2,3
 232 266 232 266 221.5 270.5 c 128,-1,4
 211 275 211 275 211 299 c 0,5,6
 211 308 211 308 207.5 310.5 c 128,-1,7
 204 313 204 313 192 313 c 0,8,9
 178 313 178 313 174 317.5 c 128,-1,10
 170 322 170 322 168 340 c 0,11,12
 165 363 165 363 165 386 c 0,13,14
 165 400 165 400 169 403.5 c 128,-1,15
 173 407 173 407 189 407 c 2,16,-1
 211 407 l 1,17,-1
 211 313 l 1,18,-1
 352 313 l 1,19,-1
 352 266 l 1,20,-1
 398 266 l 1,21,-1
 398 173 l 1,22,-1
 352 173 l 1,0,-1
352 173 m 1,23,-1
 352 127 l 1,24,-1
 172 127 l 1,25,-1
 172 173 l 1,26,-1
 352 173 l 1,23,-1
211 407 m 1,27,-1
 211 453 l 1,28,-1
 398 453 l 1,29,-1
 398 407 l 1,30,-1
 211 407 l 1,27,-1
EndSplineSet
EndChar

StartChar: t
Encoding: 116 116 86
Width: 563
Flags: W
LayerCount: 2
Fore
SplineSet
259 453 m 1,0,-1
 259 546 l 1,1,-1
 305 546 l 1,2,-1
 305 453 l 1,3,-1
 398 453 l 1,4,-1
 398 407 l 1,5,-1
 305 407 l 1,6,-1
 305 127 l 1,7,-1
 259 127 l 1,8,-1
 259 407 l 1,9,-1
 165 407 l 1,10,-1
 165 453 l 1,11,-1
 259 453 l 1,0,-1
EndSplineSet
EndChar

StartChar: u
Encoding: 117 117 87
Width: 563
Flags: W
LayerCount: 2
Fore
SplineSet
142 162 m 1,0,-1
 142 441 l 1,1,-1
 188 441 l 1,2,-1
 188 162 l 1,3,-1
 142 162 l 1,0,-1
374 162 m 1,4,-1
 374 115 l 1,5,-1
 188 115 l 1,6,-1
 188 162 l 1,7,-1
 374 162 l 1,4,-1
374 162 m 1,8,-1
 374 441 l 1,9,-1
 421 441 l 1,10,-1
 421 162 l 1,11,-1
 374 162 l 1,8,-1
EndSplineSet
EndChar

StartChar: v
Encoding: 118 118 88
Width: 563
Flags: W
LayerCount: 2
Fore
SplineSet
119 394 m 1,0,-1
 119 441 l 1,1,-1
 165 441 l 1,2,-1
 165 394 l 1,3,-1
 212 394 l 1,4,-1
 212 301 l 1,5,-1
 165 301 l 1,6,-1
 165 394 l 1,7,-1
 119 394 l 1,0,-1
398 394 m 1,8,-1
 398 301 l 1,9,-1
 351 301 l 1,10,-1
 351 208 l 1,11,-1
 305 208 l 1,12,-1
 305 115 l 1,13,-1
 258 115 l 1,14,-1
 258 208 l 1,15,-1
 212 208 l 1,16,-1
 212 301 l 1,17,-1
 258 301 l 1,18,-1
 258 208 l 1,19,-1
 305 208 l 1,20,-1
 305 301 l 1,21,-1
 351 301 l 1,22,-1
 351 394 l 1,23,-1
 398 394 l 1,8,-1
398 394 m 1,24,-1
 398 441 l 1,25,-1
 444 441 l 1,26,-1
 444 394 l 1,27,-1
 398 394 l 1,24,-1
EndSplineSet
EndChar

StartChar: w
Encoding: 119 119 89
Width: 563
Flags: W
LayerCount: 2
Fore
SplineSet
119 162 m 1,0,-1
 119 441 l 1,1,-1
 165 441 l 1,2,-1
 165 162 l 1,3,-1
 119 162 l 1,0,-1
398 162 m 1,4,-1
 398 115 l 1,5,-1
 305 115 l 1,6,-1
 305 162 l 1,7,-1
 258 162 l 1,8,-1
 258 115 l 1,9,-1
 165 115 l 1,10,-1
 165 162 l 1,11,-1
 258 162 l 1,12,-1
 258 441 l 1,13,-1
 305 441 l 1,14,-1
 305 162 l 1,15,-1
 398 162 l 1,4,-1
398 162 m 1,16,-1
 398 441 l 1,17,-1
 444 441 l 1,18,-1
 444 162 l 1,19,-1
 398 162 l 1,16,-1
EndSplineSet
EndChar

StartChar: x
Encoding: 120 120 90
Width: 563
Flags: W
LayerCount: 2
Fore
SplineSet
119 394 m 1,0,-1
 119 441 l 1,1,-1
 165 441 l 1,2,-1
 165 394 l 1,3,-1
 119 394 l 1,0,-1
165 162 m 1,4,-1
 165 208 l 1,5,-1
 212 208 l 1,6,-1
 212 255 l 1,7,-1
 258 255 l 1,8,-1
 258 301 l 1,9,-1
 212 301 l 1,10,-1
 212 348 l 1,11,-1
 165 348 l 1,12,-1
 165 394 l 1,13,-1
 212 394 l 1,14,-1
 212 348 l 1,15,-1
 258 348 l 1,16,-1
 258 301 l 1,17,-1
 305 301 l 1,18,-1
 305 255 l 1,19,-1
 351 255 l 1,20,-1
 351 208 l 1,21,-1
 305 208 l 1,22,-1
 305 255 l 1,23,-1
 258 255 l 1,24,-1
 258 208 l 1,25,-1
 212 208 l 1,26,-1
 212 162 l 1,27,-1
 165 162 l 1,4,-1
165 162 m 1,28,-1
 165 115 l 1,29,-1
 119 115 l 1,30,-1
 119 162 l 1,31,-1
 165 162 l 1,28,-1
398 162 m 1,32,-1
 351 162 l 1,33,-1
 351 208 l 1,34,-1
 398 208 l 1,35,-1
 398 162 l 1,32,-1
398 162 m 1,36,-1
 444 162 l 1,37,-1
 444 115 l 1,38,-1
 398 115 l 1,39,-1
 398 162 l 1,36,-1
398 394 m 1,40,-1
 398 348 l 1,41,-1
 351 348 l 1,42,-1
 351 301 l 1,43,-1
 305 301 l 1,44,-1
 305 348 l 1,45,-1
 351 348 l 1,46,-1
 351 394 l 1,47,-1
 398 394 l 1,40,-1
398 394 m 1,48,-1
 398 441 l 1,49,-1
 444 441 l 1,50,-1
 444 394 l 1,51,-1
 398 394 l 1,48,-1
EndSplineSet
EndChar

StartChar: y
Encoding: 121 121 91
Width: 563
Flags: W
LayerCount: 2
Fore
SplineSet
142 162 m 1,0,-1
 142 441 l 1,1,-1
 188 441 l 1,2,-1
 188 162 l 1,3,-1
 142 162 l 1,0,-1
188 23 m 1,4,-1
 374 23 l 1,5,-1
 374 115 l 1,6,-1
 188 115 l 1,7,-1
 188 162 l 1,8,-1
 374 162 l 1,9,-1
 374 441 l 1,10,-1
 421 441 l 1,11,-1
 421 23 l 1,12,-1
 374 23 l 1,13,-1
 374 -25 l 1,14,-1
 188 -25 l 1,15,-1
 188 23 l 1,4,-1
188 23 m 1,16,-1
 142 23 l 1,17,-1
 142 69 l 1,18,-1
 188 69 l 1,19,-1
 188 23 l 1,16,-1
EndSplineSet
EndChar

StartChar: z
Encoding: 122 122 92
Width: 563
Flags: W
LayerCount: 2
Fore
SplineSet
142 400 m 1,0,-1
 142 446 l 1,1,-1
 421 446 l 1,2,-1
 421 353 l 1,3,-1
 374 353 l 1,4,-1
 374 307 l 1,5,-1
 328 307 l 1,6,-1
 328 353 l 1,7,-1
 374 353 l 1,8,-1
 374 400 l 1,9,-1
 142 400 l 1,0,-1
188 214 m 1,10,-1
 188 261 l 1,11,-1
 235 261 l 1,12,-1
 235 307 l 1,13,-1
 328 307 l 1,14,-1
 328 261 l 1,15,-1
 235 261 l 1,16,-1
 235 214 l 1,17,-1
 188 214 l 1,10,-1
188 214 m 1,18,-1
 188 168 l 1,19,-1
 421 168 l 1,20,-1
 421 121 l 1,21,-1
 142 121 l 1,22,-1
 142 214 l 1,23,-1
 188 214 l 1,18,-1
EndSplineSet
EndChar

StartChar: braceleft
Encoding: 123 123 93
Width: 563
Flags: W
LayerCount: 2
Fore
SplineSet
305 633 m 1,0,-1
 305 680 l 1,1,-1
 398 680 l 1,2,-1
 398 633 l 1,3,-1
 305 633 l 1,4,-1
 305 400 l 1,5,-1
 211 400 l 1,6,-1
 211 446 l 1,7,-1
 259 446 l 1,8,-1
 259 633 l 1,9,-1
 305 633 l 1,0,-1
211 307 m 1,10,-1
 165 307 l 1,11,-1
 165 400 l 1,12,-1
 211 400 l 1,13,-1
 211 307 l 1,10,-1
211 307 m 1,14,-1
 305 307 l 1,15,-1
 305 75 l 1,16,-1
 398 75 l 1,17,-1
 398 28 l 1,18,-1
 305 28 l 1,19,-1
 305 51 l 2,20,21
 305 68 305 68 302.5 71.5 c 128,-1,22
 300 75 300 75 285 75 c 0,23,24
 266 75 266 75 262.5 90 c 128,-1,25
 259 105 259 105 259 181 c 2,26,-1
 259 261 l 1,27,-1
 211 261 l 1,28,-1
 211 307 l 1,14,-1
EndSplineSet
EndChar

StartChar: bar
Encoding: 124 124 94
Width: 563
Flags: W
LayerCount: 2
Fore
SplineSet
258 24 m 1,0,-1
 258 679 l 1,1,-1
 305 679 l 1,2,-1
 305 24 l 1,3,-1
 258 24 l 1,0,-1
EndSplineSet
EndChar

StartChar: braceright
Encoding: 125 125 95
Width: 563
Flags: W
LayerCount: 2
Fore
SplineSet
164 632 m 1,0,-1
 164 679 l 1,1,-1
 258 679 l 1,2,-1
 258 632 l 1,3,-1
 164 632 l 1,0,-1
258 71 m 1,4,-1
 258 304 l 1,5,-1
 352 304 l 1,6,-1
 352 398 l 1,7,-1
 258 398 l 1,8,-1
 258 632 l 1,9,-1
 305 632 l 1,10,-1
 305 444 l 1,11,-1
 352 444 l 1,12,-1
 352 398 l 1,13,-1
 399 398 l 1,14,-1
 399 304 l 1,15,-1
 352 304 l 1,16,-1
 352 257 l 1,17,-1
 305 257 l 1,18,-1
 305 71 l 1,19,-1
 258 71 l 1,4,-1
258 71 m 1,20,-1
 258 24 l 1,21,-1
 164 24 l 1,22,-1
 164 71 l 1,23,-1
 258 71 l 1,20,-1
EndSplineSet
EndChar

StartChar: asciitilde
Encoding: 126 126 96
Width: 563
Flags: W
LayerCount: 2
Fore
SplineSet
141 351 m 1,0,-1
 141 398 l 1,1,-1
 235 398 l 1,2,-1
 235 351 l 1,3,-1
 141 351 l 1,4,-1
 141 304 l 1,5,-1
 48 304 l 1,6,-1
 48 339 l 0,7,-1
 48 351 l 1,8,-1
 141 351 l 1,0,-1
422 304 m 1,9,-1
 422 257 l 1,10,-1
 328 257 l 1,11,-1
 328 304 l 1,12,-1
 235 304 l 1,13,-1
 235 351 l 1,14,-1
 328 351 l 1,15,-1
 328 304 l 1,16,-1
 422 304 l 1,9,-1
422 304 m 1,17,-1
 422 351 l 1,18,-1
 516 351 l 1,19,-1
 516 304 l 1,20,-1
 422 304 l 1,17,-1
EndSplineSet
EndChar

